<svg width="135" height="36" viewBox="0 0 135 36" fill="none" xmlns="http://www.w3.org/2000/svg">
<path d="M69.9859 25V8.59375H73.2906V25H69.9859ZM74.5563 25V21.6953C74.9 21.6953 75.2203 21.5547 75.5172 21.2734C75.7359 21.0234 75.8531 20.7266 75.8688 20.3828V13.2109C75.8688 12.8984 75.7359 12.5938 75.4703 12.2969C75.2203 12.0469 74.9156 11.9141 74.5563 11.8984V8.59375C76.2906 8.59375 77.6031 9.36719 78.4938 10.9141C78.9469 11.7109 79.1734 12.4766 79.1734 13.2109V20.3828C79.1734 22.1641 78.3844 23.4922 76.8063 24.3672C76.025 24.7891 75.275 25 74.5563 25Z" fill="#E0E0E0"/>
<path d="M21.7422 18.9531H21.4922V19.1069L21.6294 19.1762L21.7422 18.9531ZM21.7422 17.4531L21.6299 17.2298L21.4922 17.299V17.4531H21.7422ZM30.0391 13.2812H30.2891V12.8757L29.9268 13.0579L30.0391 13.2812ZM30.0391 16.3281L30.1404 16.5567L30.2891 16.4908V16.3281H30.0391ZM25.9141 18.1562L25.8128 17.9277L25.322 18.1452L25.8043 18.3809L25.9141 18.1562ZM30.0391 20.1719H30.2891V20.0158L30.1488 19.9473L30.0391 20.1719ZM30.0391 23.1484L29.9263 23.3715L30.2891 23.555V23.1484H30.0391ZM21.9922 18.9531V17.4531H21.4922V18.9531H21.9922ZM21.8545 17.6765L30.1514 13.5046L29.9268 13.0579L21.6299 17.2298L21.8545 17.6765ZM29.7891 13.2812V16.3281H30.2891V13.2812H29.7891ZM29.9378 16.0996L25.8128 17.9277L26.0154 18.3848L30.1404 16.5567L29.9378 16.0996ZM25.8043 18.3809L29.9293 20.3965L30.1488 19.9473L26.0238 17.9316L25.8043 18.3809ZM29.7891 20.1719V23.1484H30.2891V20.1719H29.7891ZM30.1519 22.9253L21.855 18.73L21.6294 19.1762L29.9263 23.3715L30.1519 22.9253ZM37.4406 10.2109L37.6376 10.3649L37.6377 10.3648L37.4406 10.2109ZM41.05 8.47656H41.3V8.22397L41.0474 8.22658L41.05 8.47656ZM41.05 11.7812L41.056 12.0312L41.3 12.0254V11.7812H41.05ZM39.7844 12.6953L40.008 12.8071L40.0168 12.7894L40.0228 12.7706L39.7844 12.6953ZM40.1359 21.4844L39.9705 21.6718L39.9713 21.6725L40.1359 21.4844ZM41.05 21.8125H41.3V21.5625H41.05V21.8125ZM41.05 25.1172V25.3672H41.3V25.1172H41.05ZM37.0891 22.9141L36.8731 23.04L36.8753 23.0437L37.0891 22.9141ZM42.3156 25.1172H42.0656V25.3672H42.3156V25.1172ZM42.3156 21.8125L42.2245 21.5797L42.0656 21.6419V21.8125H42.3156ZM42.8547 21.6016L42.9458 21.8344L42.9747 21.8231L43 21.805L42.8547 21.6016ZM43.3 21.1094L43.5276 21.2128L43.5307 21.2061L43.5333 21.1991L43.3 21.1094ZM43.4172 19.9609L43.4753 19.7178L43.1672 19.6441V19.9609H43.4172ZM46.6516 20.7344H46.9016V20.5371L46.7097 20.4912L46.6516 20.7344ZM45.0109 24.1094L45.1684 24.3035L45.1688 24.3032L45.0109 24.1094ZM42.3156 11.7812H42.0656V11.9614L42.2366 12.0184L42.3156 11.7812ZM42.3156 8.47656V8.22656H42.0656V8.47656H42.3156ZM45.4094 9.97656L45.5939 9.80792L45.5932 9.80711L45.4094 9.97656ZM46.6516 12.9062L46.7147 13.1482L46.9016 13.0994V12.9062H46.6516ZM43.4172 13.75H43.1672V14.0736L43.4803 13.9919L43.4172 13.75ZM43.3 12.5312L43.0679 12.6241L43.0692 12.6274L43.3 12.5312ZM42.9484 12.1094L42.7921 12.3048L42.8014 12.3116L42.9484 12.1094ZM42.5266 11.8516L42.6144 11.6173L42.6056 11.6144L42.5266 11.8516ZM36.6828 20.7578V12.8594H36.1828V20.7578H36.6828ZM36.6828 12.8594C36.6828 12.0196 36.9928 11.1896 37.6376 10.3649L37.2437 10.057C36.5447 10.9511 36.1828 11.8866 36.1828 12.8594H36.6828ZM37.6377 10.3648C38.479 9.28735 39.6089 8.74143 41.0526 8.72655L41.0474 8.22658C39.4599 8.24294 38.1835 8.85328 37.2436 10.0571L37.6377 10.3648ZM40.8 8.47656V11.7812H41.3V8.47656H40.8ZM41.044 11.5313C40.6786 11.54 40.3565 11.63 40.095 11.8188C39.8325 12.0084 39.6526 12.2823 39.546 12.62L40.0228 12.7706C40.1036 12.5146 40.2285 12.3392 40.3878 12.2242C40.5482 12.1083 40.7651 12.0381 41.056 12.0312L41.044 11.5313ZM39.5608 12.5835C39.52 12.6651 39.4875 12.7593 39.4875 12.8594H39.9875C39.9875 12.8635 39.9869 12.8615 39.9896 12.8519C39.9923 12.8423 39.9978 12.8275 40.008 12.8071L39.5608 12.5835ZM39.4875 12.8594V20.7578H39.9875V12.8594H39.4875ZM39.4875 20.7578C39.4875 21.1055 39.6742 21.4104 39.9705 21.6718L40.3013 21.2969C40.0664 21.0896 39.9875 20.9101 39.9875 20.7578H39.4875ZM39.9713 21.6725C40.2708 21.9345 40.6354 22.0625 41.05 22.0625V21.5625C40.7458 21.5625 40.5011 21.4717 40.3006 21.2962L39.9713 21.6725ZM40.8 21.8125V25.1172H41.3V21.8125H40.8ZM41.05 24.8672C39.3854 24.8672 38.1471 24.1767 37.3028 22.7844L36.8753 23.0437C37.8123 24.5889 39.2146 25.3672 41.05 25.3672V24.8672ZM37.305 22.7881C36.884 22.0664 36.6828 21.3908 36.6828 20.7578H36.1828C36.1828 21.4998 36.4191 22.2617 36.8731 23.04L37.305 22.7881ZM42.5656 25.1172V21.8125H42.0656V25.1172H42.5656ZM42.3156 21.8125C42.4067 22.0453 42.4067 22.0453 42.4067 22.0453C42.4067 22.0453 42.4067 22.0453 42.4067 22.0453C42.4067 22.0453 42.4067 22.0453 42.4067 22.0453C42.4067 22.0453 42.4068 22.0453 42.4068 22.0453C42.4068 22.0453 42.4068 22.0453 42.4068 22.0453C42.4068 22.0453 42.4068 22.0453 42.4068 22.0453C42.4068 22.0453 42.4068 22.0453 42.4068 22.0453C42.4068 22.0453 42.4068 22.0453 42.4069 22.0453C42.4069 22.0453 42.4069 22.0453 42.4069 22.0452C42.4069 22.0452 42.4069 22.0452 42.4069 22.0452C42.4069 22.0452 42.407 22.0452 42.407 22.0452C42.407 22.0452 42.407 22.0452 42.407 22.0452C42.407 22.0452 42.4071 22.0452 42.4071 22.0452C42.4071 22.0452 42.4071 22.0452 42.4071 22.0452C42.4071 22.0451 42.4072 22.0451 42.4072 22.0451C42.4072 22.0451 42.4072 22.0451 42.4073 22.0451C42.4073 22.0451 42.4073 22.0451 42.4073 22.0451C42.4073 22.0451 42.4074 22.0451 42.4074 22.045C42.4074 22.045 42.4074 22.045 42.4075 22.045C42.4075 22.045 42.4075 22.045 42.4075 22.045C42.4076 22.045 42.4076 22.045 42.4076 22.045C42.4077 22.0449 42.4077 22.0449 42.4077 22.0449C42.4078 22.0449 42.4078 22.0449 42.4078 22.0449C42.4078 22.0449 42.4079 22.0449 42.4079 22.0448C42.4079 22.0448 42.408 22.0448 42.408 22.0448C42.408 22.0448 42.4081 22.0448 42.4081 22.0448C42.4082 22.0448 42.4082 22.0447 42.4082 22.0447C42.4083 22.0447 42.4083 22.0447 42.4083 22.0447C42.4084 22.0447 42.4084 22.0446 42.4085 22.0446C42.4085 22.0446 42.4085 22.0446 42.4086 22.0446C42.4086 22.0446 42.4087 22.0446 42.4087 22.0445C42.4087 22.0445 42.4088 22.0445 42.4088 22.0445C42.4089 22.0445 42.4089 22.0445 42.409 22.0444C42.409 22.0444 42.4091 22.0444 42.4091 22.0444C42.4091 22.0444 42.4092 22.0443 42.4092 22.0443C42.4093 22.0443 42.4093 22.0443 42.4094 22.0443C42.4094 22.0442 42.4095 22.0442 42.4095 22.0442C42.4096 22.0442 42.4096 22.0442 42.4097 22.0441C42.4097 22.0441 42.4098 22.0441 42.4099 22.0441C42.4099 22.0441 42.41 22.044 42.41 22.044C42.4101 22.044 42.4101 22.044 42.4102 22.044C42.4102 22.0439 42.4103 22.0439 42.4104 22.0439C42.4104 22.0439 42.4105 22.0438 42.4105 22.0438C42.4106 22.0438 42.4106 22.0438 42.4107 22.0438C42.4108 22.0437 42.4108 22.0437 42.4109 22.0437C42.411 22.0437 42.411 22.0436 42.4111 22.0436C42.4111 22.0436 42.4112 22.0436 42.4113 22.0435C42.4113 22.0435 42.4114 22.0435 42.4115 22.0435C42.4115 22.0434 42.4116 22.0434 42.4117 22.0434C42.4117 22.0434 42.4118 22.0433 42.4119 22.0433C42.4119 22.0433 42.412 22.0432 42.4121 22.0432C42.4121 22.0432 42.4122 22.0432 42.4123 22.0431C42.4124 22.0431 42.4124 22.0431 42.4125 22.0431C42.4126 22.043 42.4126 22.043 42.4127 22.043C42.4128 22.0429 42.4129 22.0429 42.4129 22.0429C42.413 22.0428 42.4131 22.0428 42.4132 22.0428C42.4133 22.0428 42.4133 22.0427 42.4134 22.0427C42.4135 22.0427 42.4136 22.0426 42.4136 22.0426C42.4137 22.0426 42.4138 22.0425 42.4139 22.0425C42.414 22.0425 42.414 22.0424 42.4141 22.0424C42.4142 22.0424 42.4143 22.0423 42.4144 22.0423C42.4145 22.0423 42.4145 22.0423 42.4146 22.0422C42.4147 22.0422 42.4148 22.0422 42.4149 22.0421C42.415 22.0421 42.4151 22.042 42.4151 22.042C42.4152 22.042 42.4153 22.0419 42.4154 22.0419C42.4155 22.0419 42.4156 22.0418 42.4157 22.0418C42.4158 22.0418 42.4159 22.0417 42.416 22.0417C42.416 22.0417 42.4161 22.0416 42.4162 22.0416C42.4163 22.0416 42.4164 22.0415 42.4165 22.0415C42.4166 22.0414 42.4167 22.0414 42.4168 22.0414C42.4169 22.0413 42.417 22.0413 42.4171 22.0413C42.4172 22.0412 42.4173 22.0412 42.4174 22.0411C42.4175 22.0411 42.4176 22.0411 42.4177 22.041C42.4178 22.041 42.4179 22.0409 42.418 22.0409C42.4181 22.0409 42.4182 22.0408 42.4183 22.0408C42.4184 22.0407 42.4185 22.0407 42.4186 22.0407C42.4187 22.0406 42.4188 22.0406 42.4189 22.0405C42.419 22.0405 42.4191 22.0405 42.4192 22.0404C42.4193 22.0404 42.4195 22.0403 42.4196 22.0403C42.4197 22.0402 42.4198 22.0402 42.4199 22.0402C42.42 22.0401 42.4201 22.0401 42.4202 22.04C42.4203 22.04 42.4204 22.0399 42.4206 22.0399C42.4207 22.0399 42.4208 22.0398 42.4209 22.0398C42.421 22.0397 42.4211 22.0397 42.4212 22.0396C42.4213 22.0396 42.4215 22.0395 42.4216 22.0395C42.4217 22.0395 42.4218 22.0394 42.4219 22.0394C42.4221 22.0393 42.4222 22.0393 42.4223 22.0392C42.4224 22.0392 42.4225 22.0391 42.4226 22.0391C42.4228 22.039 42.4229 22.039 42.423 22.0389C42.4231 22.0389 42.4233 22.0388 42.4234 22.0388C42.4235 22.0387 42.4236 22.0387 42.4238 22.0386C42.4239 22.0386 42.424 22.0385 42.4241 22.0385C42.4243 22.0385 42.4244 22.0384 42.4245 22.0384C42.4246 22.0383 42.4248 22.0383 42.4249 22.0382C42.425 22.0382 42.4252 22.0381 42.4253 22.038C42.4254 22.038 42.4255 22.0379 42.4257 22.0379C42.4258 22.0378 42.4259 22.0378 42.4261 22.0377C42.4262 22.0377 42.4263 22.0376 42.4265 22.0376C42.4266 22.0375 42.4267 22.0375 42.4269 22.0374C42.427 22.0374 42.4272 22.0373 42.4273 22.0373C42.4274 22.0372 42.4276 22.0372 42.4277 22.0371C42.4278 22.037 42.428 22.037 42.4281 22.0369C42.4283 22.0369 42.4284 22.0368 42.4285 22.0368C42.4287 22.0367 42.4288 22.0367 42.429 22.0366C42.4291 22.0366 42.4293 22.0365 42.4294 22.0364C42.4295 22.0364 42.4297 22.0363 42.4298 22.0363C42.43 22.0362 42.4301 22.0362 42.4303 22.0361C42.4304 22.036 42.4306 22.036 42.4307 22.0359C42.4309 22.0359 42.431 22.0358 42.4312 22.0358C42.4313 22.0357 42.4315 22.0356 42.4316 22.0356C42.4318 22.0355 42.4319 22.0355 42.4321 22.0354C42.4322 22.0353 42.4324 22.0353 42.4325 22.0352C42.4327 22.0352 42.4328 22.0351 42.433 22.035C42.4331 22.035 42.4333 22.0349 42.4334 22.0349C42.4336 22.0348 42.4338 22.0347 42.4339 22.0347C42.4341 22.0346 42.4342 22.0345 42.4344 22.0345C42.4346 22.0344 42.4347 22.0344 42.4349 22.0343C42.435 22.0342 42.4352 22.0342 42.4354 22.0341C42.4355 22.034 42.4357 22.034 42.4358 22.0339C42.436 22.0339 42.4362 22.0338 42.4363 22.0337C42.4365 22.0337 42.4367 22.0336 42.4368 22.0335C42.437 22.0335 42.4372 22.0334 42.4373 22.0333C42.4375 22.0333 42.4377 22.0332 42.4378 22.0331C42.438 22.0331 42.4382 22.033 42.4383 22.0329C42.4385 22.0329 42.4387 22.0328 42.4389 22.0327C42.439 22.0327 42.4392 22.0326 42.4394 22.0325C42.4395 22.0325 42.4397 22.0324 42.4399 22.0323C42.4401 22.0323 42.4402 22.0322 42.4404 22.0321C42.4406 22.0321 42.4408 22.032 42.4409 22.0319C42.4411 22.0319 42.4413 22.0318 42.4415 22.0317C42.4417 22.0316 42.4418 22.0316 42.442 22.0315C42.4422 22.0314 42.4424 22.0314 42.4426 22.0313C42.4427 22.0312 42.4429 22.0311 42.4431 22.0311C42.4433 22.031 42.4435 22.0309 42.4436 22.0309C42.4438 22.0308 42.444 22.0307 42.4442 22.0306C42.4444 22.0306 42.4446 22.0305 42.4448 22.0304C42.4449 22.0304 42.4451 22.0303 42.4453 22.0302C42.4455 22.0301 42.4457 22.0301 42.4459 22.03C42.4461 22.0299 42.4463 22.0298 42.4465 22.0298C42.4466 22.0297 42.4468 22.0296 42.447 22.0295C42.4472 22.0295 42.4474 22.0294 42.4476 22.0293C42.4478 22.0292 42.448 22.0292 42.4482 22.0291C42.4484 22.029 42.4486 22.0289 42.4488 22.0289C42.449 22.0288 42.4492 22.0287 42.4494 22.0286C42.4496 22.0285 42.4498 22.0285 42.45 22.0284C42.4502 22.0283 42.4504 22.0282 42.4506 22.0282C42.4508 22.0281 42.451 22.028 42.4512 22.0279C42.4514 22.0278 42.4516 22.0278 42.4518 22.0277C42.452 22.0276 42.4522 22.0275 42.4524 22.0274C42.4526 22.0274 42.4528 22.0273 42.453 22.0272C42.4532 22.0271 42.4534 22.027 42.4536 22.027C42.4538 22.0269 42.454 22.0268 42.4542 22.0267C42.4544 22.0266 42.4547 22.0266 42.4549 22.0265C42.4551 22.0264 42.4553 22.0263 42.4555 22.0262C42.4557 22.0261 42.4559 22.0261 42.4561 22.026C42.4563 22.0259 42.4566 22.0258 42.4568 22.0257C42.457 22.0256 42.4572 22.0256 42.4574 22.0255C42.4576 22.0254 42.4578 22.0253 42.4581 22.0252C42.4583 22.0251 42.4585 22.0251 42.4587 22.025C42.4589 22.0249 42.4591 22.0248 42.4594 22.0247C42.4596 22.0246 42.4598 22.0245 42.46 22.0245C42.4602 22.0244 42.4605 22.0243 42.4607 22.0242C42.4609 22.0241 42.4611 22.024 42.4614 22.0239C42.4616 22.0238 42.4618 22.0238 42.462 22.0237C42.4623 22.0236 42.4625 22.0235 42.4627 22.0234C42.4629 22.0233 42.4632 22.0232 42.4634 22.0231C42.4636 22.023 42.4638 22.023 42.4641 22.0229C42.4643 22.0228 42.4645 22.0227 42.4648 22.0226C42.465 22.0225 42.4652 22.0224 42.4655 22.0223C42.4657 22.0222 42.4659 22.0221 42.4662 22.0221C42.4664 22.022 42.4666 22.0219 42.4669 22.0218C42.4671 22.0217 42.4673 22.0216 42.4676 22.0215C42.4678 22.0214 42.468 22.0213 42.4683 22.0212C42.4685 22.0211 42.4687 22.021 42.469 22.0209C42.4692 22.0209 42.4695 22.0208 42.4697 22.0207C42.4699 22.0206 42.4702 22.0205 42.4704 22.0204C42.4707 22.0203 42.4709 22.0202 42.4711 22.0201C42.4714 22.02 42.4716 22.0199 42.4719 22.0198C42.4721 22.0197 42.4724 22.0196 42.4726 22.0195C42.4729 22.0194 42.4731 22.0193 42.4734 22.0192C42.4736 22.0191 42.4738 22.019 42.4741 22.0189C42.4743 22.0189 42.4746 22.0188 42.4748 22.0187C42.4751 22.0186 42.4753 22.0185 42.4756 22.0184C42.4758 22.0183 42.4761 22.0182 42.4763 22.0181C42.4766 22.018 42.4769 22.0179 42.4771 22.0178C42.4774 22.0177 42.4776 22.0176 42.4779 22.0175C42.4781 22.0174 42.4784 22.0173 42.4786 22.0172C42.4789 22.0171 42.4791 22.017 42.4794 22.0169C42.4797 22.0168 42.4799 22.0167 42.4802 22.0166C42.4804 22.0165 42.4807 22.0164 42.481 22.0163C42.4812 22.0162 42.4815 22.0161 42.4817 22.016C42.482 22.0159 42.4823 22.0158 42.4825 22.0156C42.4828 22.0155 42.4831 22.0154 42.4833 22.0153C42.4836 22.0152 42.4839 22.0151 42.4841 22.015C42.4844 22.0149 42.4847 22.0148 42.4849 22.0147C42.4852 22.0146 42.4855 22.0145 42.4857 22.0144C42.486 22.0143 42.4863 22.0142 42.4865 22.0141C42.4868 22.014 42.4871 22.0139 42.4873 22.0138C42.4876 22.0137 42.4879 22.0136 42.4882 22.0134C42.4884 22.0133 42.4887 22.0132 42.489 22.0131C42.4893 22.013 42.4895 22.0129 42.4898 22.0128C42.4901 22.0127 42.4904 22.0126 42.4906 22.0125C42.4909 22.0124 42.4912 22.0123 42.4915 22.0122C42.4917 22.012 42.492 22.0119 42.4923 22.0118C42.4926 22.0117 42.4929 22.0116 42.4931 22.0115C42.4934 22.0114 42.4937 22.0113 42.494 22.0112C42.4943 22.0111 42.4946 22.0109 42.4948 22.0108C42.4951 22.0107 42.4954 22.0106 42.4957 22.0105C42.496 22.0104 42.4963 22.0103 42.4965 22.0102C42.4968 22.0101 42.4971 22.0099 42.4974 22.0098C42.4977 22.0097 42.498 22.0096 42.4983 22.0095C42.4986 22.0094 42.4989 22.0093 42.4991 22.0091C42.4994 22.009 42.4997 22.0089 42.5 22.0088C42.5003 22.0087 42.5006 22.0086 42.5009 22.0085C42.5012 22.0083 42.5015 22.0082 42.5018 22.0081C42.5021 22.008 42.5024 22.0079 42.5027 22.0078C42.503 22.0077 42.5033 22.0075 42.5036 22.0074C42.5039 22.0073 42.5042 22.0072 42.5045 22.0071C42.5048 22.007 42.505 22.0068 42.5054 22.0067C42.5057 22.0066 42.506 22.0065 42.5063 22.0064C42.5066 22.0062 42.5069 22.0061 42.5072 22.006C42.5075 22.0059 42.5078 22.0058 42.5081 22.0057C42.5084 22.0055 42.5087 22.0054 42.509 22.0053C42.5093 22.0052 42.5096 22.0051 42.5099 22.0049C42.5102 22.0048 42.5105 22.0047 42.5108 22.0046C42.5111 22.0045 42.5114 22.0043 42.5118 22.0042C42.5121 22.0041 42.5124 22.004 42.5127 22.0038C42.513 22.0037 42.5133 22.0036 42.5136 22.0035C42.5139 22.0034 42.5142 22.0032 42.5146 22.0031C42.5149 22.003 42.5152 22.0029 42.5155 22.0027C42.5158 22.0026 42.5161 22.0025 42.5165 22.0024C42.5168 22.0022 42.5171 22.0021 42.5174 22.002C42.5177 22.0019 42.518 22.0018 42.5184 22.0016C42.5187 22.0015 42.519 22.0014 42.5193 22.0013C42.5196 22.0011 42.52 22.001 42.5203 22.0009C42.5206 22.0007 42.5209 22.0006 42.5213 22.0005C42.5216 22.0004 42.5219 22.0002 42.5222 22.0001C42.5226 22 42.5229 21.9999 42.5232 21.9997C42.5235 21.9996 42.5239 21.9995 42.5242 21.9993C42.5245 21.9992 42.5248 21.9991 42.5252 21.999C42.5255 21.9988 42.5258 21.9987 42.5262 21.9986C42.5265 21.9984 42.5268 21.9983 42.5272 21.9982C42.5275 21.9981 42.5278 21.9979 42.5282 21.9978C42.5285 21.9977 42.5288 21.9975 42.5292 21.9974C42.5295 21.9973 42.5298 21.9971 42.5302 21.997C42.5305 21.9969 42.5308 21.9967 42.5312 21.9966C42.5315 21.9965 42.5318 21.9964 42.5322 21.9962C42.5325 21.9961 42.5329 21.996 42.5332 21.9958C42.5335 21.9957 42.5339 21.9956 42.5342 21.9954C42.5346 21.9953 42.5349 21.9952 42.5352 21.995C42.5356 21.9949 42.5359 21.9948 42.5363 21.9946C42.5366 21.9945 42.537 21.9943 42.5373 21.9942C42.5377 21.9941 42.538 21.9939 42.5384 21.9938C42.5387 21.9937 42.539 21.9935 42.5394 21.9934C42.5397 21.9933 42.5401 21.9931 42.5404 21.993C42.5408 21.9929 42.5411 21.9927 42.5415 21.9926C42.5418 21.9924 42.5422 21.9923 42.5425 21.9922C42.5429 21.992 42.5433 21.9919 42.5436 21.9917C42.544 21.9916 42.5443 21.9915 42.5447 21.9913C42.545 21.9912 42.5454 21.9911 42.5457 21.9909C42.5461 21.9908 42.5464 21.9906 42.5468 21.9905C42.5472 21.9904 42.5475 21.9902 42.5479 21.9901C42.5482 21.9899 42.5486 21.9898 42.549 21.9897C42.5493 21.9895 42.5497 21.9894 42.55 21.9892C42.5504 21.9891 42.5508 21.9889 42.5511 21.9888C42.5515 21.9887 42.5519 21.9885 42.5522 21.9884C42.5526 21.9882 42.553 21.9881 42.5533 21.9879C42.5537 21.9878 42.5541 21.9877 42.5544 21.9875C42.5548 21.9874 42.5552 21.9872 42.5555 21.9871C42.5559 21.9869 42.5563 21.9868 42.5566 21.9867C42.557 21.9865 42.5574 21.9864 42.5577 21.9862C42.5581 21.9861 42.5585 21.9859 42.5589 21.9858C42.5592 21.9856 42.5596 21.9855 42.56 21.9853C42.5604 21.9852 42.5607 21.985 42.5611 21.9849C42.5615 21.9848 42.5619 21.9846 42.5622 21.9845C42.5626 21.9843 42.563 21.9842 42.5634 21.984C42.5637 21.9839 42.5641 21.9837 42.5645 21.9836C42.5649 21.9834 42.5653 21.9833 42.5656 21.9831C42.566 21.983 42.5664 21.9828 42.5668 21.9827C42.5672 21.9825 42.5676 21.9824 42.5679 21.9822C42.5683 21.9821 42.5687 21.9819 42.5691 21.9818C42.5695 21.9816 42.5699 21.9815 42.5703 21.9813C42.5706 21.9812 42.571 21.981 42.5714 21.9809C42.5718 21.9807 42.5722 21.9806 42.5726 21.9804C42.573 21.9803 42.5734 21.9801 42.5738 21.98C42.5741 21.9798 42.5745 21.9796 42.5749 21.9795C42.5753 21.9793 42.5757 21.9792 42.5761 21.979C42.5765 21.9789 42.5769 21.9787 42.5773 21.9786C42.5777 21.9784 42.5781 21.9783 42.5785 21.9781C42.5789 21.9779 42.5793 21.9778 42.5797 21.9776C42.5801 21.9775 42.5805 21.9773 42.5809 21.9772C42.5813 21.977 42.5817 21.9769 42.5821 21.9767C42.5825 21.9765 42.5829 21.9764 42.5833 21.9762C42.5837 21.9761 42.5841 21.9759 42.5845 21.9758C42.5849 21.9756 42.5853 21.9754 42.5857 21.9753C42.5861 21.9751 42.5865 21.975 42.5869 21.9748C42.5873 21.9747 42.5877 21.9745 42.5881 21.9743C42.5885 21.9742 42.5889 21.974 42.5893 21.9739C42.5897 21.9737 42.5902 21.9735 42.5906 21.9734C42.591 21.9732 42.5914 21.9731 42.5918 21.9729C42.5922 21.9727 42.5926 21.9726 42.593 21.9724C42.5934 21.9722 42.5939 21.9721 42.5943 21.9719C42.5947 21.9718 42.5951 21.9716 42.5955 21.9714C42.5959 21.9713 42.5963 21.9711 42.5968 21.9709C42.5972 21.9708 42.5976 21.9706 42.598 21.9705C42.5984 21.9703 42.5989 21.9701 42.5993 21.97C42.5997 21.9698 42.6001 21.9696 42.6005 21.9695C42.601 21.9693 42.6014 21.9691 42.6018 21.969C42.6022 21.9688 42.6026 21.9686 42.6031 21.9685C42.6035 21.9683 42.6039 21.9681 42.6043 21.968C42.6048 21.9678 42.6052 21.9676 42.6056 21.9675C42.606 21.9673 42.6065 21.9671 42.6069 21.967C42.6073 21.9668 42.6078 21.9666 42.6082 21.9665C42.6086 21.9663 42.609 21.9661 42.6095 21.966C42.6099 21.9658 42.6103 21.9656 42.6108 21.9655C42.6112 21.9653 42.6116 21.9651 42.6121 21.965C42.6125 21.9648 42.6129 21.9646 42.6134 21.9645C42.6138 21.9643 42.6142 21.9641 42.6147 21.9639C42.6151 21.9638 42.6155 21.9636 42.616 21.9634C42.6164 21.9633 42.6169 21.9631 42.6173 21.9629C42.6177 21.9627 42.6182 21.9626 42.6186 21.9624C42.6191 21.9622 42.6195 21.9621 42.6199 21.9619C42.6204 21.9617 42.6208 21.9615 42.6213 21.9614C42.6217 21.9612 42.6221 21.961 42.6226 21.9608C42.623 21.9607 42.6235 21.9605 42.6239 21.9603C42.6244 21.9601 42.6248 21.96 42.6253 21.9598C42.6257 21.9596 42.6262 21.9594 42.6266 21.9593C42.6271 21.9591 42.6275 21.9589 42.628 21.9587C42.6284 21.9586 42.6289 21.9584 42.6293 21.9582C42.6298 21.958 42.6302 21.9579 42.6307 21.9577C42.6311 21.9575 42.6316 21.9573 42.632 21.9572C42.6325 21.957 42.6329 21.9568 42.6334 21.9566C42.6338 21.9564 42.6343 21.9563 42.6348 21.9561C42.6352 21.9559 42.6357 21.9557 42.6361 21.9555C42.6366 21.9554 42.637 21.9552 42.6375 21.955C42.638 21.9548 42.6384 21.9546 42.6389 21.9545C42.6393 21.9543 42.6398 21.9541 42.6403 21.9539C42.6407 21.9537 42.6412 21.9536 42.6417 21.9534C42.6421 21.9532 42.6426 21.953 42.643 21.9528C42.6435 21.9527 42.644 21.9525 42.6444 21.9523C42.6449 21.9521 42.6454 21.9519 42.6458 21.9517C42.6463 21.9516 42.6468 21.9514 42.6472 21.9512C42.6477 21.951 42.6482 21.9508 42.6487 21.9506C42.6491 21.9505 42.6496 21.9503 42.6501 21.9501C42.6505 21.9499 42.651 21.9497 42.6515 21.9495C42.652 21.9494 42.6524 21.9492 42.6529 21.949C42.6534 21.9488 42.6539 21.9486 42.6543 21.9484C42.6548 21.9482 42.6553 21.948 42.6558 21.9479C42.6562 21.9477 42.6567 21.9475 42.6572 21.9473C42.6577 21.9471 42.6581 21.9469 42.6586 21.9467C42.6591 21.9466 42.6596 21.9464 42.6601 21.9462C42.6606 21.946 42.661 21.9458 42.6615 21.9456C42.662 21.9454 42.6625 21.9452 42.663 21.945C42.6634 21.9449 42.6639 21.9447 42.6644 21.9445C42.6649 21.9443 42.6654 21.9441 42.6659 21.9439C42.6664 21.9437 42.6669 21.9435 42.6673 21.9433C42.6678 21.9431 42.6683 21.9429 42.6688 21.9428C42.6693 21.9426 42.6698 21.9424 42.6703 21.9422C42.6708 21.942 42.6713 21.9418 42.6718 21.9416C42.6722 21.9414 42.6727 21.9412 42.6732 21.941C42.6737 21.9408 42.6742 21.9406 42.6747 21.9404C42.6752 21.9403 42.6757 21.9401 42.6762 21.9399C42.6767 21.9397 42.6772 21.9395 42.6777 21.9393C42.6782 21.9391 42.6787 21.9389 42.6792 21.9387C42.6797 21.9385 42.6802 21.9383 42.6807 21.9381C42.6812 21.9379 42.6817 21.9377 42.6822 21.9375C42.6827 21.9373 42.6832 21.9371 42.6837 21.9369C42.6842 21.9367 42.6847 21.9365 42.6852 21.9363C42.6857 21.9361 42.6862 21.9359 42.6867 21.9357C42.6872 21.9355 42.6877 21.9354 42.6882 21.9352C42.6887 21.935 42.6893 21.9348 42.6898 21.9346C42.6903 21.9344 42.6908 21.9342 42.6913 21.934C42.6918 21.9338 42.6923 21.9336 42.6928 21.9334C42.6933 21.9332 42.6938 21.933 42.6944 21.9328C42.6949 21.9326 42.6954 21.9324 42.6959 21.9322C42.6964 21.932 42.6969 21.9318 42.6974 21.9316C42.698 21.9313 42.6985 21.9311 42.699 21.9309C42.6995 21.9307 42.7 21.9305 42.7005 21.9303C42.7011 21.9301 42.7016 21.9299 42.7021 21.9297C42.7026 21.9295 42.7031 21.9293 42.7037 21.9291C42.7042 21.9289 42.7047 21.9287 42.7052 21.9285C42.7058 21.9283 42.7063 21.9281 42.7068 21.9279C42.7073 21.9277 42.7078 21.9275 42.7084 21.9273C42.7089 21.9271 42.7094 21.9269 42.7099 21.9267C42.7105 21.9265 42.711 21.9262 42.7115 21.926C42.7121 21.9258 42.7126 21.9256 42.7131 21.9254C42.7136 21.9252 42.7142 21.925 42.7147 21.9248C42.7152 21.9246 42.7158 21.9244 42.7163 21.9242C42.7168 21.924 42.7174 21.9238 42.7179 21.9235C42.7184 21.9233 42.719 21.9231 42.7195 21.9229C42.72 21.9227 42.7206 21.9225 42.7211 21.9223C42.7216 21.9221 42.7222 21.9219 42.7227 21.9217C42.7233 21.9215 42.7238 21.9212 42.7243 21.921C42.7249 21.9208 42.7254 21.9206 42.7259 21.9204C42.7265 21.9202 42.727 21.92 42.7276 21.9198C42.7281 21.9196 42.7287 21.9193 42.7292 21.9191C42.7297 21.9189 42.7303 21.9187 42.7308 21.9185C42.7314 21.9183 42.7319 21.9181 42.7325 21.9178C42.733 21.9176 42.7336 21.9174 42.7341 21.9172C42.7346 21.917 42.7352 21.9168 42.7357 21.9166C42.7363 21.9164 42.7368 21.9161 42.7374 21.9159C42.7379 21.9157 42.7385 21.9155 42.739 21.9153C42.7396 21.9151 42.7401 21.9148 42.7407 21.9146C42.7412 21.9144 42.7418 21.9142 42.7424 21.914C42.7429 21.9138 42.7435 21.9135 42.744 21.9133C42.7446 21.9131 42.7451 21.9129 42.7457 21.9127C42.7462 21.9125 42.7468 21.9122 42.7474 21.912C42.7479 21.9118 42.7485 21.9116 42.749 21.9114C42.7496 21.9111 42.7502 21.9109 42.7507 21.9107C42.7513 21.9105 42.7518 21.9103 42.7524 21.91C42.753 21.9098 42.7535 21.9096 42.7541 21.9094C42.7547 21.9092 42.7552 21.9089 42.7558 21.9087C42.7563 21.9085 42.7569 21.9083 42.7575 21.9081C42.758 21.9078 42.7586 21.9076 42.7592 21.9074C42.7597 21.9072 42.7603 21.907 42.7609 21.9067C42.7615 21.9065 42.762 21.9063 42.7626 21.9061C42.7632 21.9058 42.7637 21.9056 42.7643 21.9054C42.7649 21.9052 42.7654 21.9049 42.766 21.9047C42.7666 21.9045 42.7672 21.9043 42.7677 21.904C42.7683 21.9038 42.7689 21.9036 42.7695 21.9034C42.77 21.9031 42.7706 21.9029 42.7712 21.9027C42.7718 21.9025 42.7724 21.9022 42.7729 21.902C42.7735 21.9018 42.7741 21.9016 42.7747 21.9013C42.7752 21.9011 42.7758 21.9009 42.7764 21.9007C42.777 21.9004 42.7776 21.9002 42.7782 21.9C42.7787 21.8997 42.7793 21.8995 42.7799 21.8993C42.7805 21.8991 42.7811 21.8988 42.7817 21.8986C42.7822 21.8984 42.7828 21.8981 42.7834 21.8979C42.784 21.8977 42.7846 21.8974 42.7852 21.8972C42.7858 21.897 42.7864 21.8968 42.7869 21.8965C42.7875 21.8963 42.7881 21.8961 42.7887 21.8958C42.7893 21.8956 42.7899 21.8954 42.7905 21.8951C42.7911 21.8949 42.7917 21.8947 42.7923 21.8944C42.7929 21.8942 42.7935 21.894 42.7941 21.8937C42.7946 21.8935 42.7952 21.8933 42.7958 21.893C42.7964 21.8928 42.797 21.8926 42.7976 21.8923C42.7982 21.8921 42.7988 21.8919 42.7994 21.8916C42.8 21.8914 42.8006 21.8912 42.8012 21.8909C42.8018 21.8907 42.8024 21.8905 42.803 21.8902C42.8036 21.89 42.8042 21.8898 42.8048 21.8895C42.8054 21.8893 42.806 21.8891 42.8066 21.8888C42.8073 21.8886 42.8079 21.8883 42.8085 21.8881C42.8091 21.8879 42.8097 21.8876 42.8103 21.8874C42.8109 21.8872 42.8115 21.8869 42.8121 21.8867C42.8127 21.8864 42.8133 21.8862 42.8139 21.886C42.8145 21.8857 42.8152 21.8855 42.8158 21.8853C42.8164 21.885 42.817 21.8848 42.8176 21.8845C42.8182 21.8843 42.8188 21.8841 42.8194 21.8838C42.8201 21.8836 42.8207 21.8833 42.8213 21.8831C42.8219 21.8828 42.8225 21.8826 42.8231 21.8824C42.8238 21.8821 42.8244 21.8819 42.825 21.8816C42.8256 21.8814 42.8262 21.8812 42.8268 21.8809C42.8275 21.8807 42.8281 21.8804 42.8287 21.8802C42.8293 21.8799 42.83 21.8797 42.8306 21.8795C42.8312 21.8792 42.8318 21.879 42.8324 21.8787C42.8331 21.8785 42.8337 21.8782 42.8343 21.878C42.8349 21.8777 42.8356 21.8775 42.8362 21.8773C42.8368 21.877 42.8374 21.8768 42.8381 21.8765C42.8387 21.8763 42.8393 21.876 42.84 21.8758C42.8406 21.8755 42.8412 21.8753 42.8419 21.875C42.8425 21.8748 42.8431 21.8746 42.8437 21.8743C42.8444 21.8741 42.845 21.8738 42.8456 21.8736C42.8463 21.8733 42.8469 21.8731 42.8475 21.8728C42.8482 21.8726 42.8488 21.8723 42.8495 21.8721C42.8501 21.8718 42.8507 21.8716 42.8514 21.8713C42.852 21.8711 42.8526 21.8708 42.8533 21.8706C42.8539 21.8703 42.8546 21.8701 42.8552 21.8698C42.8558 21.8696 42.8565 21.8693 42.8571 21.8691C42.8578 21.8688 42.8584 21.8686 42.859 21.8683C42.8597 21.8681 42.8603 21.8678 42.861 21.8676C42.8616 21.8673 42.8623 21.8671 42.8629 21.8668C42.8636 21.8666 42.8642 21.8663 42.8648 21.866C42.8655 21.8658 42.8661 21.8655 42.8668 21.8653C42.8674 21.865 42.8681 21.8648 42.8687 21.8645C42.8694 21.8643 42.87 21.864 42.8707 21.8638C42.8713 21.8635 42.872 21.8632 42.8726 21.863C42.8733 21.8627 42.874 21.8625 42.8746 21.8622C42.8753 21.862 42.8759 21.8617 42.8766 21.8615C42.8772 21.8612 42.8779 21.8609 42.8785 21.8607C42.8792 21.8604 42.8799 21.8602 42.8805 21.8599C42.8812 21.8597 42.8818 21.8594 42.8825 21.8591C42.8831 21.8589 42.8838 21.8586 42.8845 21.8584C42.8851 21.8581 42.8858 21.8579 42.8865 21.8576C42.8871 21.8573 42.8878 21.8571 42.8884 21.8568C42.8891 21.8566 42.8898 21.8563 42.8904 21.856C42.8911 21.8558 42.8918 21.8555 42.8924 21.8553C42.8931 21.855 42.8938 21.8547 42.8944 21.8545C42.8951 21.8542 42.8958 21.8539 42.8964 21.8537C42.8971 21.8534 42.8978 21.8532 42.8984 21.8529C42.8991 21.8526 42.8998 21.8524 42.9005 21.8521C42.9011 21.8518 42.9018 21.8516 42.9025 21.8513C42.9031 21.8511 42.9038 21.8508 42.9045 21.8505C42.9052 21.8503 42.9058 21.85 42.9065 21.8497C42.9072 21.8495 42.9079 21.8492 42.9086 21.8489C42.9092 21.8487 42.9099 21.8484 42.9106 21.8481C42.9113 21.8479 42.9119 21.8476 42.9126 21.8474C42.9133 21.8471 42.914 21.8468 42.9147 21.8466C42.9153 21.8463 42.916 21.846 42.9167 21.8458C42.9174 21.8455 42.9181 21.8452 42.9188 21.8449C42.9194 21.8447 42.9201 21.8444 42.9208 21.8441C42.9215 21.8439 42.9222 21.8436 42.9229 21.8433C42.9236 21.8431 42.9242 21.8428 42.9249 21.8425C42.9256 21.8423 42.9263 21.842 42.927 21.8417C42.9277 21.8415 42.9284 21.8412 42.9291 21.8409C42.9298 21.8406 42.9305 21.8404 42.9311 21.8401C42.9318 21.8398 42.9325 21.8396 42.9332 21.8393C42.9339 21.839 42.9346 21.8387 42.9353 21.8385C42.936 21.8382 42.9367 21.8379 42.9374 21.8377C42.9381 21.8374 42.9388 21.8371 42.9395 21.8368C42.9402 21.8366 42.9409 21.8363 42.9416 21.836C42.9423 21.8357 42.943 21.8355 42.9437 21.8352C42.9444 21.8349 42.9451 21.8346 42.9458 21.8344L42.7636 21.3688C42.7629 21.369 42.7622 21.3693 42.7615 21.3696C42.7608 21.3698 42.7601 21.3701 42.7594 21.3704C42.7587 21.3707 42.758 21.3709 42.7573 21.3712C42.7566 21.3715 42.7559 21.3718 42.7552 21.372C42.7545 21.3723 42.7538 21.3726 42.7531 21.3729C42.7524 21.3731 42.7517 21.3734 42.751 21.3737C42.7503 21.3739 42.7496 21.3742 42.7489 21.3745C42.7483 21.3748 42.7476 21.375 42.7469 21.3753C42.7462 21.3756 42.7455 21.3758 42.7448 21.3761C42.7441 21.3764 42.7434 21.3766 42.7427 21.3769C42.742 21.3772 42.7414 21.3774 42.7407 21.3777C42.74 21.378 42.7393 21.3783 42.7386 21.3785C42.7379 21.3788 42.7372 21.3791 42.7366 21.3793C42.7359 21.3796 42.7352 21.3799 42.7345 21.3801C42.7338 21.3804 42.7331 21.3807 42.7325 21.3809C42.7318 21.3812 42.7311 21.3815 42.7304 21.3817C42.7297 21.382 42.7291 21.3823 42.7284 21.3825C42.7277 21.3828 42.727 21.3831 42.7264 21.3833C42.7257 21.3836 42.725 21.3839 42.7243 21.3841C42.7236 21.3844 42.723 21.3846 42.7223 21.3849C42.7216 21.3852 42.7209 21.3854 42.7203 21.3857C42.7196 21.386 42.7189 21.3862 42.7183 21.3865C42.7176 21.3868 42.7169 21.387 42.7162 21.3873C42.7156 21.3875 42.7149 21.3878 42.7142 21.3881C42.7136 21.3883 42.7129 21.3886 42.7122 21.3888C42.7116 21.3891 42.7109 21.3894 42.7102 21.3896C42.7096 21.3899 42.7089 21.3902 42.7082 21.3904C42.7076 21.3907 42.7069 21.3909 42.7062 21.3912C42.7056 21.3915 42.7049 21.3917 42.7043 21.392C42.7036 21.3922 42.7029 21.3925 42.7023 21.3927C42.7016 21.393 42.7009 21.3933 42.7003 21.3935C42.6996 21.3938 42.699 21.394 42.6983 21.3943C42.6977 21.3946 42.697 21.3948 42.6963 21.3951C42.6957 21.3953 42.695 21.3956 42.6944 21.3958C42.6937 21.3961 42.6931 21.3963 42.6924 21.3966C42.6918 21.3969 42.6911 21.3971 42.6904 21.3974C42.6898 21.3976 42.6891 21.3979 42.6885 21.3981C42.6878 21.3984 42.6872 21.3986 42.6865 21.3989C42.6859 21.3992 42.6852 21.3994 42.6846 21.3997C42.6839 21.3999 42.6833 21.4002 42.6826 21.4004C42.682 21.4007 42.6814 21.4009 42.6807 21.4012C42.6801 21.4014 42.6794 21.4017 42.6788 21.4019C42.6781 21.4022 42.6775 21.4024 42.6768 21.4027C42.6762 21.4029 42.6756 21.4032 42.6749 21.4034C42.6743 21.4037 42.6736 21.404 42.673 21.4042C42.6724 21.4045 42.6717 21.4047 42.6711 21.405C42.6704 21.4052 42.6698 21.4055 42.6692 21.4057C42.6685 21.406 42.6679 21.4062 42.6673 21.4064C42.6666 21.4067 42.666 21.4069 42.6653 21.4072C42.6647 21.4074 42.6641 21.4077 42.6634 21.4079C42.6628 21.4082 42.6622 21.4084 42.6615 21.4087C42.6609 21.4089 42.6603 21.4092 42.6597 21.4094C42.659 21.4097 42.6584 21.4099 42.6578 21.4102C42.6571 21.4104 42.6565 21.4107 42.6559 21.4109C42.6552 21.4111 42.6546 21.4114 42.654 21.4116C42.6534 21.4119 42.6527 21.4121 42.6521 21.4124C42.6515 21.4126 42.6509 21.4129 42.6502 21.4131C42.6496 21.4133 42.649 21.4136 42.6484 21.4138C42.6478 21.4141 42.6471 21.4143 42.6465 21.4146C42.6459 21.4148 42.6453 21.4151 42.6446 21.4153C42.644 21.4155 42.6434 21.4158 42.6428 21.416C42.6422 21.4163 42.6416 21.4165 42.6409 21.4167C42.6403 21.417 42.6397 21.4172 42.6391 21.4175C42.6385 21.4177 42.6379 21.4179 42.6372 21.4182C42.6366 21.4184 42.636 21.4187 42.6354 21.4189C42.6348 21.4192 42.6342 21.4194 42.6336 21.4196C42.633 21.4199 42.6323 21.4201 42.6317 21.4203C42.6311 21.4206 42.6305 21.4208 42.6299 21.4211C42.6293 21.4213 42.6287 21.4215 42.6281 21.4218C42.6275 21.422 42.6269 21.4223 42.6263 21.4225C42.6257 21.4227 42.6251 21.423 42.6244 21.4232C42.6238 21.4234 42.6232 21.4237 42.6226 21.4239C42.622 21.4241 42.6214 21.4244 42.6208 21.4246C42.6202 21.4248 42.6196 21.4251 42.619 21.4253C42.6184 21.4256 42.6178 21.4258 42.6172 21.426C42.6166 21.4263 42.616 21.4265 42.6154 21.4267C42.6148 21.427 42.6142 21.4272 42.6136 21.4274C42.613 21.4277 42.6124 21.4279 42.6119 21.4281C42.6113 21.4284 42.6107 21.4286 42.6101 21.4288C42.6095 21.4291 42.6089 21.4293 42.6083 21.4295C42.6077 21.4298 42.6071 21.43 42.6065 21.4302C42.6059 21.4304 42.6053 21.4307 42.6047 21.4309C42.6042 21.4311 42.6036 21.4314 42.603 21.4316C42.6024 21.4318 42.6018 21.4321 42.6012 21.4323C42.6006 21.4325 42.6 21.4327 42.5995 21.433C42.5989 21.4332 42.5983 21.4334 42.5977 21.4337C42.5971 21.4339 42.5965 21.4341 42.596 21.4343C42.5954 21.4346 42.5948 21.4348 42.5942 21.435C42.5936 21.4353 42.593 21.4355 42.5925 21.4357C42.5919 21.4359 42.5913 21.4362 42.5907 21.4364C42.5902 21.4366 42.5896 21.4368 42.589 21.4371C42.5884 21.4373 42.5878 21.4375 42.5873 21.4377C42.5867 21.438 42.5861 21.4382 42.5855 21.4384C42.585 21.4386 42.5844 21.4389 42.5838 21.4391C42.5832 21.4393 42.5827 21.4395 42.5821 21.4398C42.5815 21.44 42.581 21.4402 42.5804 21.4404C42.5798 21.4407 42.5793 21.4409 42.5787 21.4411C42.5781 21.4413 42.5775 21.4416 42.577 21.4418C42.5764 21.442 42.5758 21.4422 42.5753 21.4424C42.5747 21.4427 42.5741 21.4429 42.5736 21.4431C42.573 21.4433 42.5725 21.4435 42.5719 21.4438C42.5713 21.444 42.5708 21.4442 42.5702 21.4444C42.5696 21.4446 42.5691 21.4449 42.5685 21.4451C42.568 21.4453 42.5674 21.4455 42.5668 21.4457C42.5663 21.446 42.5657 21.4462 42.5652 21.4464C42.5646 21.4466 42.564 21.4468 42.5635 21.4471C42.5629 21.4473 42.5624 21.4475 42.5618 21.4477C42.5613 21.4479 42.5607 21.4481 42.5602 21.4484C42.5596 21.4486 42.559 21.4488 42.5585 21.449C42.5579 21.4492 42.5574 21.4494 42.5568 21.4497C42.5563 21.4499 42.5557 21.4501 42.5552 21.4503C42.5546 21.4505 42.5541 21.4507 42.5535 21.4509C42.553 21.4512 42.5524 21.4514 42.5519 21.4516C42.5514 21.4518 42.5508 21.452 42.5503 21.4522C42.5497 21.4524 42.5492 21.4527 42.5486 21.4529C42.5481 21.4531 42.5475 21.4533 42.547 21.4535C42.5465 21.4537 42.5459 21.4539 42.5454 21.4541C42.5448 21.4544 42.5443 21.4546 42.5437 21.4548C42.5432 21.455 42.5427 21.4552 42.5421 21.4554C42.5416 21.4556 42.5411 21.4558 42.5405 21.456C42.54 21.4563 42.5394 21.4565 42.5389 21.4567C42.5384 21.4569 42.5378 21.4571 42.5373 21.4573C42.5368 21.4575 42.5362 21.4577 42.5357 21.4579C42.5352 21.4581 42.5346 21.4583 42.5341 21.4586C42.5336 21.4588 42.533 21.459 42.5325 21.4592C42.532 21.4594 42.5314 21.4596 42.5309 21.4598C42.5304 21.46 42.5299 21.4602 42.5293 21.4604C42.5288 21.4606 42.5283 21.4608 42.5277 21.461C42.5272 21.4612 42.5267 21.4614 42.5262 21.4617C42.5256 21.4619 42.5251 21.4621 42.5246 21.4623C42.5241 21.4625 42.5236 21.4627 42.523 21.4629C42.5225 21.4631 42.522 21.4633 42.5215 21.4635C42.5209 21.4637 42.5204 21.4639 42.5199 21.4641C42.5194 21.4643 42.5189 21.4645 42.5183 21.4647C42.5178 21.4649 42.5173 21.4651 42.5168 21.4653C42.5163 21.4655 42.5158 21.4657 42.5152 21.4659C42.5147 21.4661 42.5142 21.4663 42.5137 21.4665C42.5132 21.4667 42.5127 21.4669 42.5122 21.4671C42.5116 21.4673 42.5111 21.4675 42.5106 21.4677C42.5101 21.4679 42.5096 21.4681 42.5091 21.4683C42.5086 21.4685 42.5081 21.4687 42.5076 21.4689C42.5071 21.4691 42.5065 21.4693 42.506 21.4695C42.5055 21.4697 42.505 21.4699 42.5045 21.4701C42.504 21.4703 42.5035 21.4705 42.503 21.4707C42.5025 21.4709 42.502 21.4711 42.5015 21.4713C42.501 21.4715 42.5005 21.4717 42.5 21.4719C42.4995 21.4721 42.499 21.4723 42.4985 21.4725C42.498 21.4727 42.4975 21.4729 42.497 21.4731C42.4965 21.4733 42.496 21.4735 42.4955 21.4737C42.495 21.4739 42.4945 21.474 42.494 21.4742C42.4935 21.4744 42.493 21.4746 42.4925 21.4748C42.492 21.475 42.4915 21.4752 42.491 21.4754C42.4905 21.4756 42.49 21.4758 42.4896 21.476C42.4891 21.4762 42.4886 21.4764 42.4881 21.4766C42.4876 21.4768 42.4871 21.4769 42.4866 21.4771C42.4861 21.4773 42.4856 21.4775 42.4851 21.4777C42.4847 21.4779 42.4842 21.4781 42.4837 21.4783C42.4832 21.4785 42.4827 21.4787 42.4822 21.4789C42.4817 21.479 42.4813 21.4792 42.4808 21.4794C42.4803 21.4796 42.4798 21.4798 42.4793 21.48C42.4788 21.4802 42.4784 21.4804 42.4779 21.4806C42.4774 21.4807 42.4769 21.4809 42.4764 21.4811C42.4759 21.4813 42.4755 21.4815 42.475 21.4817C42.4745 21.4819 42.474 21.4821 42.4736 21.4822C42.4731 21.4824 42.4726 21.4826 42.4721 21.4828C42.4717 21.483 42.4712 21.4832 42.4707 21.4834C42.4702 21.4835 42.4698 21.4837 42.4693 21.4839C42.4688 21.4841 42.4683 21.4843 42.4679 21.4845C42.4674 21.4847 42.4669 21.4848 42.4665 21.485C42.466 21.4852 42.4655 21.4854 42.465 21.4856C42.4646 21.4858 42.4641 21.4859 42.4636 21.4861C42.4632 21.4863 42.4627 21.4865 42.4622 21.4867C42.4618 21.4869 42.4613 21.487 42.4608 21.4872C42.4604 21.4874 42.4599 21.4876 42.4595 21.4878C42.459 21.4879 42.4585 21.4881 42.4581 21.4883C42.4576 21.4885 42.4571 21.4887 42.4567 21.4888C42.4562 21.489 42.4558 21.4892 42.4553 21.4894C42.4548 21.4896 42.4544 21.4897 42.4539 21.4899C42.4535 21.4901 42.453 21.4903 42.4526 21.4905C42.4521 21.4906 42.4516 21.4908 42.4512 21.491C42.4507 21.4912 42.4503 21.4914 42.4498 21.4915C42.4494 21.4917 42.4489 21.4919 42.4485 21.4921C42.448 21.4922 42.4476 21.4924 42.4471 21.4926C42.4467 21.4928 42.4462 21.4929 42.4458 21.4931C42.4453 21.4933 42.4449 21.4935 42.4444 21.4936C42.444 21.4938 42.4435 21.494 42.4431 21.4942C42.4426 21.4943 42.4422 21.4945 42.4417 21.4947C42.4413 21.4949 42.4408 21.495 42.4404 21.4952C42.4399 21.4954 42.4395 21.4956 42.4391 21.4957C42.4386 21.4959 42.4382 21.4961 42.4377 21.4963C42.4373 21.4964 42.4369 21.4966 42.4364 21.4968C42.436 21.4969 42.4355 21.4971 42.4351 21.4973C42.4347 21.4975 42.4342 21.4976 42.4338 21.4978C42.4333 21.498 42.4329 21.4981 42.4325 21.4983C42.432 21.4985 42.4316 21.4987 42.4312 21.4988C42.4307 21.499 42.4303 21.4992 42.4299 21.4993C42.4294 21.4995 42.429 21.4997 42.4286 21.4998C42.4281 21.5 42.4277 21.5002 42.4273 21.5004C42.4268 21.5005 42.4264 21.5007 42.426 21.5009C42.4256 21.501 42.4251 21.5012 42.4247 21.5014C42.4243 21.5015 42.4238 21.5017 42.4234 21.5019C42.423 21.502 42.4226 21.5022 42.4221 21.5024C42.4217 21.5025 42.4213 21.5027 42.4209 21.5029C42.4204 21.503 42.42 21.5032 42.4196 21.5034C42.4192 21.5035 42.4188 21.5037 42.4183 21.5039C42.4179 21.504 42.4175 21.5042 42.4171 21.5043C42.4167 21.5045 42.4162 21.5047 42.4158 21.5048C42.4154 21.505 42.415 21.5052 42.4146 21.5053C42.4141 21.5055 42.4137 21.5057 42.4133 21.5058C42.4129 21.506 42.4125 21.5061 42.4121 21.5063C42.4117 21.5065 42.4112 21.5066 42.4108 21.5068C42.4104 21.5069 42.41 21.5071 42.4096 21.5073C42.4092 21.5074 42.4088 21.5076 42.4084 21.5078C42.408 21.5079 42.4075 21.5081 42.4071 21.5082C42.4067 21.5084 42.4063 21.5086 42.4059 21.5087C42.4055 21.5089 42.4051 21.509 42.4047 21.5092C42.4043 21.5093 42.4039 21.5095 42.4035 21.5097C42.4031 21.5098 42.4027 21.51 42.4023 21.5101C42.4019 21.5103 42.4015 21.5105 42.4011 21.5106C42.4007 21.5108 42.4003 21.5109 42.3999 21.5111C42.3995 21.5112 42.3991 21.5114 42.3987 21.5115C42.3983 21.5117 42.3979 21.5119 42.3975 21.512C42.3971 21.5122 42.3967 21.5123 42.3963 21.5125C42.3959 21.5126 42.3955 21.5128 42.3951 21.5129C42.3947 21.5131 42.3943 21.5133 42.3939 21.5134C42.3935 21.5136 42.3931 21.5137 42.3927 21.5139C42.3923 21.514 42.3919 21.5142 42.3916 21.5143C42.3912 21.5145 42.3908 21.5146 42.3904 21.5148C42.39 21.5149 42.3896 21.5151 42.3892 21.5152C42.3888 21.5154 42.3884 21.5155 42.3881 21.5157C42.3877 21.5159 42.3873 21.516 42.3869 21.5162C42.3865 21.5163 42.3861 21.5165 42.3857 21.5166C42.3854 21.5168 42.385 21.5169 42.3846 21.5171C42.3842 21.5172 42.3838 21.5174 42.3834 21.5175C42.3831 21.5177 42.3827 21.5178 42.3823 21.5179C42.3819 21.5181 42.3815 21.5182 42.3812 21.5184C42.3808 21.5185 42.3804 21.5187 42.38 21.5188C42.3797 21.519 42.3793 21.5191 42.3789 21.5193C42.3785 21.5194 42.3782 21.5196 42.3778 21.5197C42.3774 21.5199 42.377 21.52 42.3767 21.5202C42.3763 21.5203 42.3759 21.5204 42.3755 21.5206C42.3752 21.5207 42.3748 21.5209 42.3744 21.521C42.3741 21.5212 42.3737 21.5213 42.3733 21.5215C42.373 21.5216 42.3726 21.5218 42.3722 21.5219C42.3719 21.522 42.3715 21.5222 42.3711 21.5223C42.3708 21.5225 42.3704 21.5226 42.37 21.5228C42.3697 21.5229 42.3693 21.523 42.3689 21.5232C42.3686 21.5233 42.3682 21.5235 42.3678 21.5236C42.3675 21.5237 42.3671 21.5239 42.3668 21.524C42.3664 21.5242 42.366 21.5243 42.3657 21.5245C42.3653 21.5246 42.365 21.5247 42.3646 21.5249C42.3642 21.525 42.3639 21.5252 42.3635 21.5253C42.3632 21.5254 42.3628 21.5256 42.3625 21.5257C42.3621 21.5259 42.3618 21.526 42.3614 21.5261C42.3611 21.5263 42.3607 21.5264 42.3603 21.5265C42.36 21.5267 42.3596 21.5268 42.3593 21.527C42.3589 21.5271 42.3586 21.5272 42.3582 21.5274C42.3579 21.5275 42.3575 21.5276 42.3572 21.5278C42.3568 21.5279 42.3565 21.528 42.3562 21.5282C42.3558 21.5283 42.3555 21.5285 42.3551 21.5286C42.3548 21.5287 42.3544 21.5289 42.3541 21.529C42.3537 21.5291 42.3534 21.5293 42.353 21.5294C42.3527 21.5295 42.3524 21.5297 42.352 21.5298C42.3517 21.5299 42.3513 21.5301 42.351 21.5302C42.3507 21.5303 42.3503 21.5305 42.35 21.5306C42.3496 21.5307 42.3493 21.5309 42.349 21.531C42.3486 21.5311 42.3483 21.5313 42.348 21.5314C42.3476 21.5315 42.3473 21.5317 42.347 21.5318C42.3466 21.5319 42.3463 21.532 42.346 21.5322C42.3456 21.5323 42.3453 21.5324 42.345 21.5326C42.3446 21.5327 42.3443 21.5328 42.344 21.533C42.3436 21.5331 42.3433 21.5332 42.343 21.5333C42.3426 21.5335 42.3423 21.5336 42.342 21.5337C42.3417 21.5339 42.3413 21.534 42.341 21.5341C42.3407 21.5342 42.3404 21.5344 42.34 21.5345C42.3397 21.5346 42.3394 21.5347 42.3391 21.5349C42.3387 21.535 42.3384 21.5351 42.3381 21.5353C42.3378 21.5354 42.3374 21.5355 42.3371 21.5356C42.3368 21.5358 42.3365 21.5359 42.3362 21.536C42.3358 21.5361 42.3355 21.5363 42.3352 21.5364C42.3349 21.5365 42.3346 21.5366 42.3343 21.5368C42.3339 21.5369 42.3336 21.537 42.3333 21.5371C42.333 21.5372 42.3327 21.5374 42.3324 21.5375C42.332 21.5376 42.3317 21.5377 42.3314 21.5379C42.3311 21.538 42.3308 21.5381 42.3305 21.5382C42.3302 21.5383 42.3299 21.5385 42.3296 21.5386C42.3292 21.5387 42.3289 21.5388 42.3286 21.539C42.3283 21.5391 42.328 21.5392 42.3277 21.5393C42.3274 21.5394 42.3271 21.5396 42.3268 21.5397C42.3265 21.5398 42.3262 21.5399 42.3259 21.54C42.3256 21.5402 42.3253 21.5403 42.325 21.5404C42.3247 21.5405 42.3244 21.5406 42.3241 21.5407C42.3238 21.5409 42.3235 21.541 42.3232 21.5411C42.3229 21.5412 42.3226 21.5413 42.3223 21.5414C42.322 21.5416 42.3217 21.5417 42.3214 21.5418C42.3211 21.5419 42.3208 21.542 42.3205 21.5421C42.3202 21.5423 42.3199 21.5424 42.3196 21.5425C42.3193 21.5426 42.319 21.5427 42.3187 21.5428C42.3184 21.543 42.3181 21.5431 42.3178 21.5432C42.3175 21.5433 42.3172 21.5434 42.3169 21.5435C42.3167 21.5436 42.3164 21.5438 42.3161 21.5439C42.3158 21.544 42.3155 21.5441 42.3152 21.5442C42.3149 21.5443 42.3146 21.5444 42.3143 21.5445C42.3141 21.5447 42.3138 21.5448 42.3135 21.5449C42.3132 21.545 42.3129 21.5451 42.3126 21.5452C42.3124 21.5453 42.3121 21.5454 42.3118 21.5455C42.3115 21.5457 42.3112 21.5458 42.3109 21.5459C42.3107 21.546 42.3104 21.5461 42.3101 21.5462C42.3098 21.5463 42.3095 21.5464 42.3093 21.5465C42.309 21.5466 42.3087 21.5467 42.3084 21.5469C42.3082 21.547 42.3079 21.5471 42.3076 21.5472C42.3073 21.5473 42.3071 21.5474 42.3068 21.5475C42.3065 21.5476 42.3062 21.5477 42.306 21.5478C42.3057 21.5479 42.3054 21.548 42.3051 21.5481C42.3049 21.5482 42.3046 21.5484 42.3043 21.5485C42.3041 21.5486 42.3038 21.5487 42.3035 21.5488C42.3033 21.5489 42.303 21.549 42.3027 21.5491C42.3025 21.5492 42.3022 21.5493 42.3019 21.5494C42.3017 21.5495 42.3014 21.5496 42.3011 21.5497C42.3009 21.5498 42.3006 21.5499 42.3003 21.55C42.3001 21.5501 42.2998 21.5502 42.2995 21.5503C42.2993 21.5504 42.299 21.5505 42.2988 21.5506C42.2985 21.5507 42.2982 21.5508 42.298 21.5509C42.2977 21.551 42.2975 21.5511 42.2972 21.5512C42.2969 21.5514 42.2967 21.5515 42.2964 21.5516C42.2962 21.5517 42.2959 21.5518 42.2957 21.5519C42.2954 21.552 42.2952 21.5521 42.2949 21.5521C42.2947 21.5522 42.2944 21.5523 42.2941 21.5524C42.2939 21.5525 42.2936 21.5526 42.2934 21.5527C42.2931 21.5528 42.2929 21.5529 42.2926 21.553C42.2924 21.5531 42.2921 21.5532 42.2919 21.5533C42.2916 21.5534 42.2914 21.5535 42.2912 21.5536C42.2909 21.5537 42.2907 21.5538 42.2904 21.5539C42.2902 21.554 42.2899 21.5541 42.2897 21.5542C42.2894 21.5543 42.2892 21.5544 42.2889 21.5545C42.2887 21.5546 42.2885 21.5547 42.2882 21.5548C42.288 21.5549 42.2877 21.555 42.2875 21.555C42.2873 21.5551 42.287 21.5552 42.2868 21.5553C42.2865 21.5554 42.2863 21.5555 42.2861 21.5556C42.2858 21.5557 42.2856 21.5558 42.2854 21.5559C42.2851 21.556 42.2849 21.5561 42.2847 21.5562C42.2844 21.5563 42.2842 21.5563 42.284 21.5564C42.2837 21.5565 42.2835 21.5566 42.2833 21.5567C42.283 21.5568 42.2828 21.5569 42.2826 21.557C42.2823 21.5571 42.2821 21.5572 42.2819 21.5572C42.2816 21.5573 42.2814 21.5574 42.2812 21.5575C42.281 21.5576 42.2807 21.5577 42.2805 21.5578C42.2803 21.5579 42.2801 21.558 42.2798 21.558C42.2796 21.5581 42.2794 21.5582 42.2792 21.5583C42.2789 21.5584 42.2787 21.5585 42.2785 21.5586C42.2783 21.5587 42.278 21.5587 42.2778 21.5588C42.2776 21.5589 42.2774 21.559 42.2772 21.5591C42.2769 21.5592 42.2767 21.5593 42.2765 21.5593C42.2763 21.5594 42.2761 21.5595 42.2759 21.5596C42.2756 21.5597 42.2754 21.5598 42.2752 21.5599C42.275 21.5599 42.2748 21.56 42.2746 21.5601C42.2744 21.5602 42.2741 21.5603 42.2739 21.5604C42.2737 21.5604 42.2735 21.5605 42.2733 21.5606C42.2731 21.5607 42.2729 21.5608 42.2727 21.5609C42.2725 21.5609 42.2722 21.561 42.272 21.5611C42.2718 21.5612 42.2716 21.5613 42.2714 21.5613C42.2712 21.5614 42.271 21.5615 42.2708 21.5616C42.2706 21.5617 42.2704 21.5617 42.2702 21.5618C42.27 21.5619 42.2698 21.562 42.2696 21.5621C42.2694 21.5621 42.2692 21.5622 42.269 21.5623C42.2688 21.5624 42.2686 21.5625 42.2684 21.5625C42.2682 21.5626 42.268 21.5627 42.2678 21.5628C42.2676 21.5628 42.2674 21.5629 42.2672 21.563C42.267 21.5631 42.2668 21.5632 42.2666 21.5632C42.2664 21.5633 42.2662 21.5634 42.266 21.5635C42.2658 21.5635 42.2656 21.5636 42.2654 21.5637C42.2652 21.5638 42.265 21.5638 42.2648 21.5639C42.2646 21.564 42.2644 21.5641 42.2643 21.5641C42.2641 21.5642 42.2639 21.5643 42.2637 21.5644C42.2635 21.5644 42.2633 21.5645 42.2631 21.5646C42.2629 21.5647 42.2627 21.5647 42.2626 21.5648C42.2624 21.5649 42.2622 21.565 42.262 21.565C42.2618 21.5651 42.2616 21.5652 42.2614 21.5652C42.2613 21.5653 42.2611 21.5654 42.2609 21.5655C42.2607 21.5655 42.2605 21.5656 42.2604 21.5657C42.2602 21.5657 42.26 21.5658 42.2598 21.5659C42.2596 21.566 42.2595 21.566 42.2593 21.5661C42.2591 21.5662 42.2589 21.5662 42.2587 21.5663C42.2586 21.5664 42.2584 21.5664 42.2582 21.5665C42.258 21.5666 42.2579 21.5666 42.2577 21.5667C42.2575 21.5668 42.2573 21.5668 42.2572 21.5669C42.257 21.567 42.2568 21.567 42.2567 21.5671C42.2565 21.5672 42.2563 21.5673 42.2561 21.5673C42.256 21.5674 42.2558 21.5674 42.2556 21.5675C42.2555 21.5676 42.2553 21.5676 42.2551 21.5677C42.255 21.5678 42.2548 21.5678 42.2546 21.5679C42.2545 21.568 42.2543 21.568 42.2541 21.5681C42.254 21.5682 42.2538 21.5682 42.2536 21.5683C42.2535 21.5684 42.2533 21.5684 42.2532 21.5685C42.253 21.5685 42.2528 21.5686 42.2527 21.5687C42.2525 21.5687 42.2524 21.5688 42.2522 21.5689C42.252 21.5689 42.2519 21.569 42.2517 21.569C42.2516 21.5691 42.2514 21.5692 42.2512 21.5692C42.2511 21.5693 42.2509 21.5694 42.2508 21.5694C42.2506 21.5695 42.2505 21.5695 42.2503 21.5696C42.2502 21.5697 42.25 21.5697 42.2499 21.5698C42.2497 21.5698 42.2496 21.5699 42.2494 21.57C42.2493 21.57 42.2491 21.5701 42.249 21.5701C42.2488 21.5702 42.2487 21.5702 42.2485 21.5703C42.2484 21.5704 42.2482 21.5704 42.2481 21.5705C42.2479 21.5705 42.2478 21.5706 42.2476 21.5706C42.2475 21.5707 42.2473 21.5708 42.2472 21.5708C42.2471 21.5709 42.2469 21.5709 42.2468 21.571C42.2466 21.571 42.2465 21.5711 42.2463 21.5712C42.2462 21.5712 42.2461 21.5713 42.2459 21.5713C42.2458 21.5714 42.2456 21.5714 42.2455 21.5715C42.2454 21.5715 42.2452 21.5716 42.2451 21.5716C42.245 21.5717 42.2448 21.5717 42.2447 21.5718C42.2445 21.5719 42.2444 21.5719 42.2443 21.572C42.2441 21.572 42.244 21.5721 42.2439 21.5721C42.2437 21.5722 42.2436 21.5722 42.2435 21.5723C42.2433 21.5723 42.2432 21.5724 42.2431 21.5724C42.243 21.5725 42.2428 21.5725 42.2427 21.5726C42.2426 21.5726 42.2424 21.5727 42.2423 21.5727C42.2422 21.5728 42.2421 21.5728 42.2419 21.5729C42.2418 21.5729 42.2417 21.573 42.2416 21.573C42.2414 21.5731 42.2413 21.5731 42.2412 21.5732C42.2411 21.5732 42.2409 21.5733 42.2408 21.5733C42.2407 21.5734 42.2406 21.5734 42.2404 21.5735C42.2403 21.5735 42.2402 21.5736 42.2401 21.5736C42.24 21.5736 42.2399 21.5737 42.2397 21.5737C42.2396 21.5738 42.2395 21.5738 42.2394 21.5739C42.2393 21.5739 42.2392 21.574 42.239 21.574C42.2389 21.5741 42.2388 21.5741 42.2387 21.5741C42.2386 21.5742 42.2385 21.5742 42.2384 21.5743C42.2382 21.5743 42.2381 21.5744 42.238 21.5744C42.2379 21.5745 42.2378 21.5745 42.2377 21.5745C42.2376 21.5746 42.2375 21.5746 42.2374 21.5747C42.2373 21.5747 42.2371 21.5748 42.237 21.5748C42.2369 21.5748 42.2368 21.5749 42.2367 21.5749C42.2366 21.575 42.2365 21.575 42.2364 21.575C42.2363 21.5751 42.2362 21.5751 42.2361 21.5752C42.236 21.5752 42.2359 21.5752 42.2358 21.5753C42.2357 21.5753 42.2356 21.5754 42.2355 21.5754C42.2354 21.5754 42.2353 21.5755 42.2352 21.5755C42.2351 21.5756 42.235 21.5756 42.2349 21.5756C42.2348 21.5757 42.2347 21.5757 42.2346 21.5757C42.2345 21.5758 42.2344 21.5758 42.2343 21.5759C42.2342 21.5759 42.2341 21.5759 42.234 21.576C42.2339 21.576 42.2338 21.576 42.2338 21.5761C42.2337 21.5761 42.2336 21.5761 42.2335 21.5762C42.2334 21.5762 42.2333 21.5763 42.2332 21.5763C42.2331 21.5763 42.233 21.5764 42.2329 21.5764C42.2329 21.5764 42.2328 21.5765 42.2327 21.5765C42.2326 21.5765 42.2325 21.5766 42.2324 21.5766C42.2323 21.5766 42.2323 21.5767 42.2322 21.5767C42.2321 21.5767 42.232 21.5768 42.2319 21.5768C42.2318 21.5768 42.2318 21.5769 42.2317 21.5769C42.2316 21.5769 42.2315 21.577 42.2314 21.577C42.2314 21.577 42.2313 21.577 42.2312 21.5771C42.2311 21.5771 42.2311 21.5771 42.231 21.5772C42.2309 21.5772 42.2308 21.5772 42.2307 21.5773C42.2307 21.5773 42.2306 21.5773 42.2305 21.5773C42.2304 21.5774 42.2304 21.5774 42.2303 21.5774C42.2302 21.5775 42.2302 21.5775 42.2301 21.5775C42.23 21.5775 42.2299 21.5776 42.2299 21.5776C42.2298 21.5776 42.2297 21.5777 42.2297 21.5777C42.2296 21.5777 42.2295 21.5777 42.2295 21.5778C42.2294 21.5778 42.2293 21.5778 42.2293 21.5778C42.2292 21.5779 42.2291 21.5779 42.2291 21.5779C42.229 21.5779 42.2289 21.578 42.2289 21.578C42.2288 21.578 42.2288 21.578 42.2287 21.5781C42.2286 21.5781 42.2286 21.5781 42.2285 21.5781C42.2284 21.5782 42.2284 21.5782 42.2283 21.5782C42.2283 21.5782 42.2282 21.5782 42.2282 21.5783C42.2281 21.5783 42.228 21.5783 42.228 21.5783C42.2279 21.5784 42.2279 21.5784 42.2278 21.5784C42.2278 21.5784 42.2277 21.5784 42.2277 21.5785C42.2276 21.5785 42.2275 21.5785 42.2275 21.5785C42.2274 21.5785 42.2274 21.5786 42.2273 21.5786C42.2273 21.5786 42.2272 21.5786 42.2272 21.5786C42.2271 21.5787 42.2271 21.5787 42.227 21.5787C42.227 21.5787 42.2269 21.5787 42.2269 21.5788C42.2269 21.5788 42.2268 21.5788 42.2268 21.5788C42.2267 21.5788 42.2267 21.5788 42.2266 21.5789C42.2266 21.5789 42.2265 21.5789 42.2265 21.5789C42.2265 21.5789 42.2264 21.5789 42.2264 21.579C42.2263 21.579 42.2263 21.579 42.2263 21.579C42.2262 21.579 42.2262 21.579 42.2261 21.5791C42.2261 21.5791 42.2261 21.5791 42.226 21.5791C42.226 21.5791 42.226 21.5791 42.2259 21.5791C42.2259 21.5792 42.2258 21.5792 42.2258 21.5792C42.2258 21.5792 42.2257 21.5792 42.2257 21.5792C42.2257 21.5792 42.2256 21.5793 42.2256 21.5793C42.2256 21.5793 42.2256 21.5793 42.2255 21.5793C42.2255 21.5793 42.2255 21.5793 42.2254 21.5793C42.2254 21.5793 42.2254 21.5794 42.2253 21.5794C42.2253 21.5794 42.2253 21.5794 42.2253 21.5794C42.2252 21.5794 42.2252 21.5794 42.2252 21.5794C42.2252 21.5794 42.2251 21.5794 42.2251 21.5795C42.2251 21.5795 42.2251 21.5795 42.2251 21.5795C42.225 21.5795 42.225 21.5795 42.225 21.5795C42.225 21.5795 42.2249 21.5795 42.2249 21.5795C42.2249 21.5795 42.2249 21.5795 42.2249 21.5796C42.2249 21.5796 42.2248 21.5796 42.2248 21.5796C42.2248 21.5796 42.2248 21.5796 42.2248 21.5796C42.2248 21.5796 42.2247 21.5796 42.2247 21.5796C42.2247 21.5796 42.2247 21.5796 42.2247 21.5796C42.2247 21.5796 42.2247 21.5796 42.2247 21.5796C42.2246 21.5796 42.2246 21.5796 42.2246 21.5796C42.2246 21.5797 42.2246 21.5797 42.2246 21.5797C42.2246 21.5797 42.2246 21.5797 42.2246 21.5797C42.2246 21.5797 42.2246 21.5797 42.2246 21.5797C42.2246 21.5797 42.2245 21.5797 42.2245 21.5797C42.2245 21.5797 42.2245 21.5797 42.2245 21.5797C42.2245 21.5797 42.2245 21.5797 42.2245 21.5797C42.2245 21.5797 42.2245 21.5797 42.3156 21.8125ZM43 21.805C43.2402 21.6334 43.4252 21.4381 43.5276 21.2128L43.0724 21.0059C43.0186 21.1244 42.9067 21.2572 42.7094 21.3981L43 21.805ZM43.5333 21.1991C43.6277 20.9538 43.6672 20.629 43.6672 20.2422H43.1672C43.1672 20.6054 43.1286 20.8587 43.0667 21.0196L43.5333 21.1991ZM43.6672 20.2422V19.9609H43.1672V20.2422H43.6672ZM43.359 20.2041L46.5934 20.9775L46.7097 20.4912L43.4753 19.7178L43.359 20.2041ZM46.4016 20.7344C46.4016 22.0154 45.8911 23.0703 44.8531 23.9155L45.1688 24.3032C46.3183 23.3672 46.9016 22.1721 46.9016 20.7344H46.4016ZM44.8534 23.9152C44.0651 24.5549 43.2211 24.8672 42.3156 24.8672V25.3672C43.3476 25.3672 44.3006 25.0076 45.1684 24.3035L44.8534 23.9152ZM42.5656 11.7812V8.47656H42.0656V11.7812H42.5656ZM42.3156 8.72656C43.373 8.72656 44.3411 9.18662 45.2256 10.146L45.5932 9.80711C44.6339 8.7665 43.5395 8.22656 42.3156 8.22656V8.72656ZM45.2248 10.1452C46.0186 11.0138 46.4016 11.9324 46.4016 12.9062H46.9016C46.9016 11.7864 46.4564 10.7518 45.5939 9.80792L45.2248 10.1452ZM46.5885 12.6643L43.3541 13.5081L43.4803 13.9919L46.7147 13.1482L46.5885 12.6643ZM43.6672 13.75V13.3984H43.1672V13.75H43.6672ZM43.6672 13.3984C43.6672 12.9996 43.6285 12.6697 43.5308 12.4351L43.0692 12.6274C43.1277 12.7678 43.1672 13.016 43.1672 13.3984H43.6672ZM43.5321 12.4384C43.4481 12.2283 43.2955 12.0527 43.0955 11.9072L42.8014 12.3116C42.9451 12.4161 43.0269 12.5217 43.0679 12.6241L43.5321 12.4384ZM43.1046 11.9142C42.937 11.78 42.7731 11.677 42.6143 11.6175L42.4388 12.0856C42.53 12.1199 42.6474 12.1887 42.7923 12.3046L43.1046 11.9142ZM42.6056 11.6144L42.3947 11.5441L42.2366 12.0184L42.4475 12.0887L42.6056 11.6144ZM52.8109 20.4297L52.5609 20.4297L52.561 20.4322L52.8109 20.4297ZM53.8656 10.1875L53.6736 10.0274L53.6721 10.0292L53.8656 10.1875ZM57.4281 8.47656H57.6781V8.22383L57.4254 8.22658L57.4281 8.47656ZM57.4281 11.7812L57.4342 12.0312L57.6781 12.0252V11.7812H57.4281ZM56.1625 12.8594L55.9223 12.79L55.9221 12.7907L56.1625 12.8594ZM57.1703 21.7422L57.0912 21.9796L57.1016 21.9826L57.1703 21.7422ZM57.4047 21.7891H57.6547V21.5391H57.4047V21.7891ZM57.4047 25.1172V25.3672H57.6547V25.1172H57.4047ZM54.7328 24.1562L54.584 24.3572L54.5868 24.3592L54.7328 24.1562ZM58.6938 25.1172H58.4438V25.3672H58.6938V25.1172ZM58.6938 21.7891V21.5391H58.4438V21.7891H58.6938ZM59.5375 21.3906L59.6995 21.5812L59.7042 21.5769L59.5375 21.3906ZM60.0063 20.4297L60.2563 20.4401V20.4297H60.0063ZM59.6078 12.2031L59.7985 12.041L59.7899 12.0318L59.6078 12.2031ZM58.6938 11.7812H58.4438V12.0206L58.6829 12.031L58.6938 11.7812ZM58.6938 8.47656V8.22656H58.4438V8.47656H58.6938ZM62.4906 10.5156L62.6954 10.3723L62.6953 10.3721L62.4906 10.5156ZM60.9906 24.4141L61.1156 24.6306L61.1186 24.6288L60.9906 24.4141ZM53.0609 20.4297V12.7188H52.5609V20.4297H53.0609ZM53.0609 12.7188C53.0609 11.9654 53.3801 11.1758 54.0591 10.3458L53.6721 10.0292C52.9449 10.918 52.5609 11.8159 52.5609 12.7188H53.0609ZM54.0577 10.3475C54.9493 9.2776 56.0681 8.74136 57.4308 8.72655L57.4254 8.22658C55.9131 8.24302 54.657 8.8474 53.6736 10.0275L54.0577 10.3475ZM57.1781 8.47656V11.7812H57.6781V8.47656H57.1781ZM57.422 11.5313C57.0538 11.5403 56.7304 11.6497 56.4691 11.8722C56.2106 12.0924 56.0332 12.4062 55.9223 12.79L56.4027 12.9288C56.4949 12.6095 56.63 12.392 56.7934 12.2528C56.954 12.116 57.1618 12.0378 57.4342 12.0312L57.422 11.5313ZM55.9221 12.7907C55.891 12.8996 55.8656 13.0081 55.8656 13.0938H56.3656C56.3656 13.0943 56.366 13.0815 56.3725 13.049C56.3786 13.0187 56.3884 12.9787 56.4029 12.9281L55.9221 12.7907ZM55.8656 13.0938V20.4297H56.3656V13.0938H55.8656ZM55.8656 20.4297C55.8656 20.7985 55.968 21.1255 56.1844 21.3949C56.3985 21.6613 56.7085 21.8518 57.0913 21.9794L57.2494 21.505C56.929 21.3982 56.7117 21.2528 56.5742 21.0817C56.439 20.9135 56.3656 20.7015 56.3656 20.4297H55.8656ZM57.1016 21.9826C57.2106 22.0137 57.3191 22.0391 57.4047 22.0391V21.5391C57.4052 21.5391 57.3924 21.5387 57.36 21.5322C57.3296 21.5261 57.2897 21.5163 57.239 21.5018L57.1016 21.9826ZM57.1547 21.7891V25.1172H57.6547V21.7891H57.1547ZM57.4047 24.8672C56.5776 24.8672 55.7369 24.5705 54.8788 23.9533L54.5868 24.3592C55.51 25.0232 56.4506 25.3672 57.4047 25.3672V24.8672ZM54.8816 23.9554C53.6776 23.0635 53.0757 21.8941 53.0609 20.4272L52.561 20.4322C52.5774 22.0591 53.2568 23.374 54.584 24.3571L54.8816 23.9554ZM58.9438 25.1172V21.7891H58.4438V25.1172H58.9438ZM58.6938 22.0391C59.0308 22.0391 59.3687 21.8623 59.6994 21.5811L59.3756 21.2001C59.0813 21.4502 58.8567 21.5391 58.6938 21.5391V22.0391ZM59.7042 21.5769C60.0479 21.2694 60.2374 20.887 60.256 20.4401L59.7565 20.4193C59.7438 20.7224 59.6208 20.9806 59.3708 21.2043L59.7042 21.5769ZM60.2563 20.4297V13.0938H59.7563V20.4297H60.2563ZM60.2563 13.0938C60.2563 12.7312 60.0852 12.3787 59.7983 12.0412L59.4173 12.365C59.6617 12.6526 59.7563 12.8938 59.7563 13.0938H60.2563ZM59.7899 12.0318C59.4959 11.7195 59.1301 11.55 58.7046 11.5315L58.6829 12.031C58.9761 12.0438 59.2197 12.1555 59.4258 12.3745L59.7899 12.0318ZM58.9438 11.7812V8.47656H58.4438V11.7812H58.9438ZM58.6938 8.72656C60.1855 8.72656 61.3767 9.36241 62.2859 10.6591L62.6953 10.3721C61.6983 8.95009 60.3583 8.22656 58.6938 8.22656V8.72656ZM62.2858 10.659C62.8143 11.414 63.0609 12.0989 63.0609 12.7188H63.5609C63.5609 11.9636 63.2607 11.1797 62.6954 10.3723L62.2858 10.659ZM63.0609 12.7188V20.4297H63.5609V12.7188H63.0609ZM63.0609 20.4297C63.0609 22.0719 62.3374 23.3204 60.8626 24.1993L61.1186 24.6288C62.7376 23.664 63.5609 22.2562 63.5609 20.4297H63.0609ZM60.8657 24.1975C60.0799 24.6509 59.3572 24.8672 58.6938 24.8672V25.3672C59.4678 25.3672 60.2764 25.1148 61.1156 24.6306L60.8657 24.1975ZM69.9859 25H69.7359V25.25H69.9859V25ZM69.9859 8.59375V8.34375H69.7359V8.59375H69.9859ZM73.2906 8.59375H73.5406V8.34375H73.2906V8.59375ZM73.2906 25V25.25H73.5406V25H73.2906ZM74.5563 25H74.3063V25.25H74.5563V25ZM74.5563 21.6953V21.4453H74.3063V21.6953H74.5563ZM75.5172 21.2734L75.6891 21.4549L75.6976 21.4469L75.7053 21.4381L75.5172 21.2734ZM75.8688 20.3828L76.1188 20.3942V20.3828H75.8688ZM75.4703 12.2969L75.6569 12.1299L75.6471 12.1201L75.4703 12.2969ZM74.5563 11.8984H74.3063V12.1378L74.5454 12.1482L74.5563 11.8984ZM74.5563 8.59375V8.34375H74.3063V8.59375H74.5563ZM78.4938 10.9141L78.7111 10.7905L78.7104 10.7893L78.4938 10.9141ZM76.8063 24.3672L76.925 24.5872L76.9275 24.5858L76.8063 24.3672ZM70.2359 25V8.59375H69.7359V25H70.2359ZM69.9859 8.84375H73.2906V8.34375H69.9859V8.84375ZM73.0406 8.59375V25H73.5406V8.59375H73.0406ZM73.2906 24.75H69.9859V25.25H73.2906V24.75ZM74.8063 25V21.6953H74.3063V25H74.8063ZM74.5563 21.9453C74.9758 21.9453 75.3552 21.7713 75.6891 21.4549L75.3453 21.0919C75.0854 21.3381 74.8242 21.4453 74.5563 21.4453V21.9453ZM75.7053 21.4381C75.9628 21.1438 76.1004 20.7923 76.1185 20.3942L75.619 20.3715C75.6059 20.6608 75.5091 20.9031 75.329 21.1088L75.7053 21.4381ZM76.1188 20.3828V13.2109H75.6188V20.3828H76.1188ZM76.1188 13.2109C76.1188 12.8215 75.9516 12.4599 75.6566 12.1302L75.284 12.4636C75.5202 12.7276 75.6188 12.9754 75.6188 13.2109H76.1188ZM75.6471 12.1201C75.352 11.825 74.9878 11.667 74.5671 11.6487L74.5454 12.1482C74.8435 12.1612 75.0886 12.2687 75.2935 12.4737L75.6471 12.1201ZM74.8063 11.8984V8.59375H74.3063V11.8984H74.8063ZM74.5563 8.84375C76.198 8.84375 77.4295 9.56663 78.2771 11.0388L78.7104 10.7893C77.7768 9.16774 76.3832 8.34375 74.5563 8.34375V8.84375ZM78.2764 11.0376C78.7134 11.8061 78.9234 12.5294 78.9234 13.2109H79.4234C79.4234 12.4237 79.1804 11.6158 78.7111 10.7905L78.2764 11.0376ZM78.9234 13.2109V20.3828H79.4234V13.2109H78.9234ZM78.9234 20.3828C78.9234 21.2355 78.735 21.9673 78.3667 22.5872C77.9984 23.2071 77.4419 23.7289 76.685 24.1485L76.9275 24.5858C77.7487 24.1305 78.3759 23.5507 78.7966 22.8425C79.2174 22.1342 79.4234 21.3114 79.4234 20.3828H78.9234ZM76.6875 24.1472C75.9342 24.554 75.2249 24.75 74.5563 24.75V25.25C75.3251 25.25 76.1158 25.0242 76.925 24.5872L76.6875 24.1472ZM85.8484 25H85.5984V25.25H85.8484V25ZM85.8484 8.59375V8.34375H85.5984V8.59375H85.8484ZM94.3797 8.59375H94.6297V8.34375H94.3797V8.59375ZM94.3797 11.875V12.125H94.6297V11.875H94.3797ZM89.1531 11.875V11.625H88.9031V11.875H89.1531ZM89.1531 15.2031H88.9031V15.4531H89.1531V15.2031ZM92.1766 15.2031H92.4266V14.9531H92.1766V15.2031ZM92.1766 18.5078V18.7578H92.4266V18.5078H92.1766ZM89.1531 18.5078V18.2578H88.9031V18.5078H89.1531ZM89.1531 21.6953H88.9031V21.9453H89.1531V21.6953ZM94.3797 21.6953H94.6297V21.4453H94.3797V21.6953ZM94.3797 25V25.25H94.6297V25H94.3797ZM86.0984 25V8.59375H85.5984V25H86.0984ZM85.8484 8.84375H94.3797V8.34375H85.8484V8.84375ZM94.1297 8.59375V11.875H94.6297V8.59375H94.1297ZM94.3797 11.625H89.1531V12.125H94.3797V11.625ZM88.9031 11.875V15.2031H89.4031V11.875H88.9031ZM89.1531 15.4531H92.1766V14.9531H89.1531V15.4531ZM91.9266 15.2031V18.5078H92.4266V15.2031H91.9266ZM92.1766 18.2578H89.1531V18.7578H92.1766V18.2578ZM88.9031 18.5078V21.6953H89.4031V18.5078H88.9031ZM89.1531 21.9453H94.3797V21.4453H89.1531V21.9453ZM94.1297 21.6953V25H94.6297V21.6953H94.1297ZM94.3797 24.75H85.8484V25.25H94.3797V24.75ZM100.773 23.1484H100.523V23.555L100.886 23.3715L100.773 23.1484ZM100.773 20.1719L100.664 19.9473L100.523 20.0158V20.1719H100.773ZM104.898 18.1562L105.008 18.3809L105.491 18.1452L105 17.9277L104.898 18.1562ZM100.773 16.3281H100.523V16.4908L100.672 16.5567L100.773 16.3281ZM100.773 13.2812L100.886 13.0579L100.523 12.8757V13.2812H100.773ZM109.07 17.4531H109.32V17.299L109.183 17.2298L109.07 17.4531ZM109.07 18.9531L109.183 19.1762L109.32 19.1069V18.9531H109.07ZM101.023 23.1484V20.1719H100.523V23.1484H101.023ZM100.883 20.3965L105.008 18.3809L104.789 17.9316L100.664 19.9473L100.883 20.3965ZM105 17.9277L100.875 16.0996L100.672 16.5567L104.797 18.3848L105 17.9277ZM101.023 16.3281V13.2812H100.523V16.3281H101.023ZM100.661 13.5046L108.958 17.6765L109.183 17.2298L100.886 13.0579L100.661 13.5046ZM108.82 17.4531V18.9531H109.32V17.4531H108.82ZM108.958 18.73L100.661 22.9253L100.886 23.3715L109.183 19.1762L108.958 18.73Z" fill="#E0E0E0"/>
<path d="M2.98438 25V8.59375H6.28906V21.7188H11.7969V25H2.98438Z" fill="#E0E0E0"/>
</svg>
