<svg width="77" height="36" viewBox="0 0 77 36" fill="none" xmlns="http://www.w3.org/2000/svg">
<mask id="path-1-outside-1_626_4" maskUnits="userSpaceOnUse" x="0" y="8" width="10" height="18" fill="black">
<rect fill="white" y="8" width="10" height="18"/>
<path d="M0.984375 25V8.59375H4.28906V21.7188H9.79688V25H0.984375Z"/>
</mask>
<path d="M0.984375 25V8.59375H4.28906V21.7188H9.79688V25H0.984375Z" fill="#121212"/>
<path d="M0.984375 25H0.884375V25.1H0.984375V25ZM0.984375 8.59375V8.49375H0.884375V8.59375H0.984375ZM4.28906 8.59375H4.38906V8.49375H4.28906V8.59375ZM4.28906 21.7188H4.18906V21.8188H4.28906V21.7188ZM9.79688 21.7188H9.89688V21.6187H9.79688V21.7188ZM9.79688 25V25.1H9.89688V25H9.79688ZM1.08438 25V8.59375H0.884375V25H1.08438ZM0.984375 8.69375H4.28906V8.49375H0.984375V8.69375ZM4.18906 8.59375V21.7188H4.38906V8.59375H4.18906ZM4.28906 21.8188H9.79688V21.6187H4.28906V21.8188ZM9.69687 21.7188V25H9.89688V21.7188H9.69687ZM9.79688 24.9H0.984375V25.1H9.79688V24.9Z" fill="#121212" mask="url(#path-1-outside-1_626_4)"/>
<mask id="path-3-outside-2_626_4" maskUnits="userSpaceOnUse" x="12" y="8" width="65" height="18" fill="black">
<rect fill="white" x="12" y="8" width="65" height="18"/>
<path d="M12.7031 18.9531V17.4531L21 13.2812V16.3281L16.875 18.1562L21 20.1719V23.1484L12.7031 18.9531ZM22.5938 20.7578V12.8594C22.5938 11.9531 22.9297 11.0703 23.6016 10.2109C24.4922 9.07031 25.6953 8.49219 27.2109 8.47656V11.7812C26.5547 11.7969 26.1328 12.1016 25.9453 12.6953C25.9141 12.7578 25.8984 12.8125 25.8984 12.8594V20.7578C25.8984 21.0078 26.0312 21.25 26.2969 21.4844C26.5469 21.7031 26.8516 21.8125 27.2109 21.8125V25.1172C25.4609 25.1172 24.1406 24.3828 23.25 22.9141C22.8125 22.1641 22.5938 21.4453 22.5938 20.7578ZM28.4766 25.1172V21.8125C28.4766 21.8125 28.6562 21.7422 29.0156 21.6016C29.2344 21.4453 29.3828 21.2812 29.4609 21.1094C29.5391 20.9062 29.5781 20.6172 29.5781 20.2422V19.9609L32.8125 20.7344C32.8125 22.0938 32.2656 23.2188 31.1719 24.1094C30.3438 24.7812 29.4453 25.1172 28.4766 25.1172ZM28.4766 11.7812V8.47656C29.6172 8.47656 30.6484 8.97656 31.5703 9.97656C32.3984 10.8828 32.8125 11.8594 32.8125 12.9062L29.5781 13.75V13.3984C29.5781 13.0078 29.5391 12.7188 29.4609 12.5312C29.3984 12.375 29.2812 12.2344 29.1094 12.1094C28.9531 11.9844 28.8125 11.8984 28.6875 11.8516L28.4766 11.7812ZM34.1719 20.4297V12.7188C34.1719 11.8906 34.5234 11.0469 35.2266 10.1875C36.1641 9.0625 37.3516 8.49219 38.7891 8.47656V11.7812C38.1484 11.7969 37.7266 12.1562 37.5234 12.8594C37.4922 12.9688 37.4766 13.0469 37.4766 13.0938V20.4297C37.4766 21.0703 37.8281 21.5078 38.5312 21.7422C38.6406 21.7734 38.7188 21.7891 38.7656 21.7891V25.1172C37.875 25.1172 36.9844 24.7969 36.0938 24.1562C34.8281 23.2188 34.1875 21.9766 34.1719 20.4297ZM40.0547 25.1172V21.7891C40.3047 21.7891 40.5859 21.6562 40.8984 21.3906C41.1953 21.125 41.3516 20.8047 41.3672 20.4297V13.0938C41.3672 12.8125 41.2344 12.5156 40.9688 12.2031C40.7188 11.9375 40.4141 11.7969 40.0547 11.7812V8.47656C41.6328 8.47656 42.8984 9.15625 43.8516 10.5156C44.3984 11.2969 44.6719 12.0312 44.6719 12.7188V20.4297C44.6719 22.1641 43.8984 23.4922 42.3516 24.4141C41.5391 24.8828 40.7734 25.1172 40.0547 25.1172ZM57.6094 25V8.59375H66.1406V11.875H60.9141V15.2031H63.9375V18.5078H60.9141V21.6953H66.1406V25H57.6094ZM67.7344 23.1484V20.1719L71.8594 18.1562L67.7344 16.3281V13.2812L76.0312 17.4531V18.9531L67.7344 23.1484Z"/>
<path d="M46.5469 25V8.59375H49.8516V25H46.5469ZM51.1172 25V21.6953C51.4609 21.6953 51.7812 21.5547 52.0781 21.2734C52.2969 21.0234 52.4141 20.7266 52.4297 20.3828V13.2109C52.4297 12.8984 52.2969 12.5938 52.0312 12.2969C51.7812 12.0469 51.4766 11.9141 51.1172 11.8984V8.59375C52.8516 8.59375 54.1641 9.36719 55.0547 10.9141C55.5078 11.7109 55.7344 12.4766 55.7344 13.2109V20.3828C55.7344 22.1641 54.9453 23.4922 53.3672 24.3672C52.5859 24.7891 51.8359 25 51.1172 25Z"/>
</mask>
<path d="M46.5469 25V8.59375H49.8516V25H46.5469ZM51.1172 25V21.6953C51.4609 21.6953 51.7812 21.5547 52.0781 21.2734C52.2969 21.0234 52.4141 20.7266 52.4297 20.3828V13.2109C52.4297 12.8984 52.2969 12.5938 52.0312 12.2969C51.7812 12.0469 51.4766 11.9141 51.1172 11.8984V8.59375C52.8516 8.59375 54.1641 9.36719 55.0547 10.9141C55.5078 11.7109 55.7344 12.4766 55.7344 13.2109V20.3828C55.7344 22.1641 54.9453 23.4922 53.3672 24.3672C52.5859 24.7891 51.8359 25 51.1172 25Z" fill="#121212"/>
<path d="M12.7031 18.9531H12.6031V19.0146L12.658 19.0424L12.7031 18.9531ZM12.7031 17.4531L12.6582 17.3638L12.6031 17.3915V17.4531H12.7031ZM21 13.2812H21.1V13.119L20.9551 13.1919L21 13.2812ZM21 16.3281L21.0405 16.4195L21.1 16.3932V16.3281H21ZM16.875 18.1562L16.8345 18.0648L16.6382 18.1518L16.8311 18.2461L16.875 18.1562ZM21 20.1719H21.1V20.1094L21.0439 20.082L21 20.1719ZM21 23.1484L20.9549 23.2377L21.1 23.3111V23.1484H21ZM12.8031 18.9531V17.4531H12.6031V18.9531H12.8031ZM12.748 17.5425L21.0449 13.3706L20.9551 13.1919L12.6582 17.3638L12.748 17.5425ZM20.9 13.2812V16.3281H21.1V13.2812H20.9ZM20.9595 16.2367L16.8345 18.0648L16.9155 18.2477L21.0405 16.4195L20.9595 16.2367ZM16.8311 18.2461L20.9561 20.2617L21.0439 20.082L16.9189 18.0664L16.8311 18.2461ZM20.9 20.1719V23.1484H21.1V20.1719H20.9ZM21.0451 23.0592L12.7482 18.8639L12.658 19.0424L20.9549 23.2377L21.0451 23.0592ZM23.6016 10.2109L23.6803 10.2725L23.6804 10.2725L23.6016 10.2109ZM27.2109 8.47656H27.3109V8.37553L27.2099 8.37657L27.2109 8.47656ZM27.2109 11.7812L27.2133 11.8812L27.3109 11.8789V11.7812H27.2109ZM25.9453 12.6953L26.0348 12.74L26.0383 12.733L26.0407 12.7254L25.9453 12.6953ZM26.2969 21.4844L26.2307 21.5594L26.231 21.5596L26.2969 21.4844ZM27.2109 21.8125H27.3109V21.7125H27.2109V21.8125ZM27.2109 25.1172V25.2172H27.3109V25.1172H27.2109ZM23.25 22.9141L23.1636 22.9645L23.1645 22.9659L23.25 22.9141ZM28.4766 25.1172H28.3766V25.2172H28.4766V25.1172ZM28.4766 21.8125L28.4401 21.7194L28.3766 21.7442V21.8125H28.4766ZM29.0156 21.6016L29.0521 21.6947L29.0636 21.6902L29.0737 21.6829L29.0156 21.6016ZM29.4609 21.1094L29.5521 21.1508L29.5543 21.1453L29.4609 21.1094ZM29.5781 19.9609L29.6014 19.8637L29.4781 19.8342V19.9609H29.5781ZM32.8125 20.7344H32.9125V20.6555L32.8358 20.6371L32.8125 20.7344ZM31.1719 24.1094L31.2349 24.187L31.235 24.1869L31.1719 24.1094ZM28.4766 11.7812H28.3766V11.8533L28.4449 11.8761L28.4766 11.7812ZM28.4766 8.47656V8.37656H28.3766V8.47656H28.4766ZM31.5703 9.97656L31.6441 9.9091L31.6438 9.90878L31.5703 9.97656ZM32.8125 12.9062L32.8377 13.003L32.9125 12.9835V12.9062H32.8125ZM29.5781 13.75H29.4781V13.8794L29.6034 13.8468L29.5781 13.75ZM29.4609 12.5312L29.3681 12.5684L29.3686 12.5697L29.4609 12.5312ZM29.1094 12.1094L29.0468 12.1875L29.0506 12.1902L29.1094 12.1094ZM28.6875 11.8516L28.7226 11.7579L28.7191 11.7567L28.6875 11.8516ZM22.6938 20.7578V12.8594H22.4937V20.7578H22.6938ZM22.6938 12.8594C22.6938 11.9797 23.0193 11.118 23.6803 10.2725L23.5228 10.1493C22.84 11.0226 22.4937 11.9265 22.4937 12.8594H22.6938ZM23.6804 10.2725C24.5513 9.15713 25.7251 8.59189 27.212 8.57656L27.2099 8.37657C25.6655 8.39249 24.4331 8.9835 23.5227 10.1494L23.6804 10.2725ZM27.1109 8.47656V11.7812H27.3109V8.47656H27.1109ZM27.2086 11.6813C26.8655 11.6894 26.5749 11.7735 26.3438 11.9404C26.1122 12.1077 25.9489 12.352 25.85 12.6652L26.0407 12.7254C26.1293 12.4449 26.2706 12.24 26.4609 12.1026C26.6516 11.9648 26.9001 11.8887 27.2133 11.8812L27.2086 11.6813ZM25.8559 12.6506C25.8208 12.7207 25.7984 12.7912 25.7984 12.8594H25.9984C25.9984 12.8338 26.0073 12.7949 26.0348 12.74L25.8559 12.6506ZM25.7984 12.8594V20.7578H25.9984V12.8594H25.7984ZM25.7984 20.7578C25.7984 21.0469 25.9528 21.3142 26.2307 21.5594L26.363 21.4094C26.1097 21.1858 25.9984 20.9687 25.9984 20.7578H25.7984ZM26.231 21.5596C26.5008 21.7957 26.8295 21.9125 27.2109 21.9125V21.7125C26.8736 21.7125 26.5929 21.6106 26.3627 21.4091L26.231 21.5596ZM27.1109 21.8125V25.1172H27.3109V21.8125H27.1109ZM27.2109 25.0172C25.4951 25.0172 24.2076 24.3004 23.3355 22.8622L23.1645 22.9659C24.0737 24.4652 25.4268 25.2172 27.2109 25.2172V25.0172ZM23.3364 22.8637C22.9055 22.125 22.6938 21.4235 22.6938 20.7578H22.4937C22.4937 21.4671 22.7195 22.2031 23.1636 22.9644L23.3364 22.8637ZM28.5766 25.1172V21.8125H28.3766V25.1172H28.5766ZM28.4766 21.8125C28.513 21.9056 28.513 21.9056 28.513 21.9056C28.513 21.9056 28.513 21.9056 28.513 21.9056C28.513 21.9056 28.513 21.9056 28.513 21.9056C28.513 21.9056 28.513 21.9056 28.513 21.9056C28.513 21.9056 28.513 21.9056 28.5131 21.9056C28.5131 21.9056 28.5131 21.9056 28.5131 21.9056C28.5131 21.9056 28.5131 21.9056 28.5131 21.9056C28.5131 21.9056 28.5131 21.9056 28.5131 21.9056C28.5131 21.9056 28.5132 21.9056 28.5132 21.9056C28.5132 21.9056 28.5132 21.9055 28.5132 21.9055C28.5132 21.9055 28.5132 21.9055 28.5133 21.9055C28.5133 21.9055 28.5133 21.9055 28.5133 21.9055C28.5133 21.9055 28.5133 21.9055 28.5133 21.9055C28.5134 21.9055 28.5134 21.9055 28.5134 21.9055C28.5134 21.9055 28.5134 21.9055 28.5135 21.9054C28.5135 21.9054 28.5135 21.9054 28.5135 21.9054C28.5136 21.9054 28.5136 21.9054 28.5136 21.9054C28.5136 21.9054 28.5136 21.9054 28.5137 21.9054C28.5137 21.9054 28.5137 21.9053 28.5137 21.9053C28.5138 21.9053 28.5138 21.9053 28.5138 21.9053C28.5139 21.9053 28.5139 21.9053 28.5139 21.9053C28.5139 21.9053 28.514 21.9052 28.514 21.9052C28.514 21.9052 28.5141 21.9052 28.5141 21.9052C28.5141 21.9052 28.5142 21.9052 28.5142 21.9052C28.5142 21.9051 28.5143 21.9051 28.5143 21.9051C28.5143 21.9051 28.5144 21.9051 28.5144 21.9051C28.5144 21.9051 28.5145 21.9051 28.5145 21.905C28.5145 21.905 28.5146 21.905 28.5146 21.905C28.5147 21.905 28.5147 21.905 28.5147 21.9049C28.5148 21.9049 28.5148 21.9049 28.5149 21.9049C28.5149 21.9049 28.5149 21.9049 28.515 21.9049C28.515 21.9048 28.5151 21.9048 28.5151 21.9048C28.5152 21.9048 28.5152 21.9048 28.5152 21.9047C28.5153 21.9047 28.5153 21.9047 28.5154 21.9047C28.5154 21.9047 28.5155 21.9047 28.5155 21.9046C28.5156 21.9046 28.5156 21.9046 28.5157 21.9046C28.5157 21.9046 28.5158 21.9045 28.5158 21.9045C28.5159 21.9045 28.5159 21.9045 28.516 21.9045C28.516 21.9044 28.5161 21.9044 28.5161 21.9044C28.5162 21.9044 28.5162 21.9044 28.5163 21.9043C28.5163 21.9043 28.5164 21.9043 28.5165 21.9043C28.5165 21.9042 28.5166 21.9042 28.5166 21.9042C28.5167 21.9042 28.5167 21.9042 28.5168 21.9041C28.5169 21.9041 28.5169 21.9041 28.517 21.9041C28.517 21.904 28.5171 21.904 28.5172 21.904C28.5172 21.904 28.5173 21.9039 28.5174 21.9039C28.5174 21.9039 28.5175 21.9039 28.5175 21.9038C28.5176 21.9038 28.5177 21.9038 28.5177 21.9038C28.5178 21.9037 28.5179 21.9037 28.5179 21.9037C28.518 21.9037 28.5181 21.9036 28.5181 21.9036C28.5182 21.9036 28.5183 21.9036 28.5184 21.9035C28.5184 21.9035 28.5185 21.9035 28.5186 21.9034C28.5186 21.9034 28.5187 21.9034 28.5188 21.9034C28.5189 21.9033 28.5189 21.9033 28.519 21.9033C28.5191 21.9032 28.5191 21.9032 28.5192 21.9032C28.5193 21.9032 28.5194 21.9031 28.5195 21.9031C28.5195 21.9031 28.5196 21.903 28.5197 21.903C28.5198 21.903 28.5198 21.9029 28.5199 21.9029C28.52 21.9029 28.5201 21.9029 28.5202 21.9028C28.5202 21.9028 28.5203 21.9028 28.5204 21.9027C28.5205 21.9027 28.5206 21.9027 28.5207 21.9026C28.5207 21.9026 28.5208 21.9026 28.5209 21.9025C28.521 21.9025 28.5211 21.9025 28.5212 21.9024C28.5213 21.9024 28.5213 21.9024 28.5214 21.9023C28.5215 21.9023 28.5216 21.9023 28.5217 21.9022C28.5218 21.9022 28.5219 21.9022 28.522 21.9021C28.5221 21.9021 28.5221 21.902 28.5222 21.902C28.5223 21.902 28.5224 21.9019 28.5225 21.9019C28.5226 21.9019 28.5227 21.9018 28.5228 21.9018C28.5229 21.9018 28.523 21.9017 28.5231 21.9017C28.5232 21.9016 28.5233 21.9016 28.5234 21.9016C28.5235 21.9015 28.5236 21.9015 28.5237 21.9015C28.5238 21.9014 28.5239 21.9014 28.524 21.9013C28.5241 21.9013 28.5242 21.9013 28.5243 21.9012C28.5244 21.9012 28.5245 21.9011 28.5246 21.9011C28.5247 21.9011 28.5248 21.901 28.5249 21.901C28.525 21.9009 28.5251 21.9009 28.5252 21.9009C28.5253 21.9008 28.5254 21.9008 28.5255 21.9007C28.5256 21.9007 28.5257 21.9006 28.5258 21.9006C28.5259 21.9006 28.5261 21.9005 28.5262 21.9005C28.5263 21.9004 28.5264 21.9004 28.5265 21.9003C28.5266 21.9003 28.5267 21.9003 28.5268 21.9002C28.5269 21.9002 28.5271 21.9001 28.5272 21.9001C28.5273 21.9 28.5274 21.9 28.5275 21.8999C28.5276 21.8999 28.5277 21.8999 28.5279 21.8998C28.528 21.8998 28.5281 21.8997 28.5282 21.8997C28.5283 21.8996 28.5284 21.8996 28.5286 21.8995C28.5287 21.8995 28.5288 21.8994 28.5289 21.8994C28.529 21.8993 28.5292 21.8993 28.5293 21.8993C28.5294 21.8992 28.5295 21.8992 28.5297 21.8991C28.5298 21.8991 28.5299 21.899 28.53 21.899C28.5302 21.8989 28.5303 21.8989 28.5304 21.8988C28.5305 21.8988 28.5307 21.8987 28.5308 21.8987C28.5309 21.8986 28.531 21.8986 28.5312 21.8985C28.5313 21.8985 28.5314 21.8984 28.5316 21.8984C28.5317 21.8983 28.5318 21.8983 28.532 21.8982C28.5321 21.8982 28.5322 21.8981 28.5324 21.8981C28.5325 21.898 28.5326 21.8979 28.5328 21.8979C28.5329 21.8978 28.533 21.8978 28.5332 21.8977C28.5333 21.8977 28.5334 21.8976 28.5336 21.8976C28.5337 21.8975 28.5338 21.8975 28.534 21.8974C28.5341 21.8974 28.5343 21.8973 28.5344 21.8973C28.5345 21.8972 28.5347 21.8971 28.5348 21.8971C28.535 21.897 28.5351 21.897 28.5352 21.8969C28.5354 21.8969 28.5355 21.8968 28.5357 21.8968C28.5358 21.8967 28.536 21.8966 28.5361 21.8966C28.5363 21.8965 28.5364 21.8965 28.5365 21.8964C28.5367 21.8964 28.5368 21.8963 28.537 21.8962C28.5371 21.8962 28.5373 21.8961 28.5374 21.8961C28.5376 21.896 28.5377 21.8959 28.5379 21.8959C28.538 21.8958 28.5382 21.8958 28.5383 21.8957C28.5385 21.8957 28.5386 21.8956 28.5388 21.8955C28.539 21.8955 28.5391 21.8954 28.5393 21.8953C28.5394 21.8953 28.5396 21.8952 28.5397 21.8952C28.5399 21.8951 28.54 21.895 28.5402 21.895C28.5404 21.8949 28.5405 21.8949 28.5407 21.8948C28.5408 21.8947 28.541 21.8947 28.5412 21.8946C28.5413 21.8945 28.5415 21.8945 28.5416 21.8944C28.5418 21.8944 28.542 21.8943 28.5421 21.8942C28.5423 21.8942 28.5424 21.8941 28.5426 21.894C28.5428 21.894 28.5429 21.8939 28.5431 21.8938C28.5433 21.8938 28.5434 21.8937 28.5436 21.8936C28.5438 21.8936 28.5439 21.8935 28.5441 21.8935C28.5443 21.8934 28.5445 21.8933 28.5446 21.8933C28.5448 21.8932 28.545 21.8931 28.5451 21.8931C28.5453 21.893 28.5455 21.8929 28.5456 21.8928C28.5458 21.8928 28.546 21.8927 28.5462 21.8926C28.5463 21.8926 28.5465 21.8925 28.5467 21.8924C28.5469 21.8924 28.547 21.8923 28.5472 21.8922C28.5474 21.8922 28.5476 21.8921 28.5478 21.892C28.5479 21.892 28.5481 21.8919 28.5483 21.8918C28.5485 21.8917 28.5487 21.8917 28.5488 21.8916C28.549 21.8915 28.5492 21.8915 28.5494 21.8914C28.5496 21.8913 28.5497 21.8912 28.5499 21.8912C28.5501 21.8911 28.5503 21.891 28.5505 21.891C28.5507 21.8909 28.5509 21.8908 28.551 21.8907C28.5512 21.8907 28.5514 21.8906 28.5516 21.8905C28.5518 21.8904 28.552 21.8904 28.5522 21.8903C28.5524 21.8902 28.5525 21.8902 28.5527 21.8901C28.5529 21.89 28.5531 21.8899 28.5533 21.8899C28.5535 21.8898 28.5537 21.8897 28.5539 21.8896C28.5541 21.8896 28.5543 21.8895 28.5545 21.8894C28.5547 21.8893 28.5549 21.8892 28.5551 21.8892C28.5552 21.8891 28.5554 21.889 28.5556 21.8889C28.5558 21.8889 28.556 21.8888 28.5562 21.8887C28.5564 21.8886 28.5566 21.8886 28.5568 21.8885C28.557 21.8884 28.5572 21.8883 28.5574 21.8882C28.5576 21.8882 28.5578 21.8881 28.558 21.888C28.5582 21.8879 28.5585 21.8878 28.5587 21.8878C28.5589 21.8877 28.5591 21.8876 28.5593 21.8875C28.5595 21.8874 28.5597 21.8874 28.5599 21.8873C28.5601 21.8872 28.5603 21.8871 28.5605 21.887C28.5607 21.887 28.5609 21.8869 28.5611 21.8868C28.5613 21.8867 28.5616 21.8866 28.5618 21.8865C28.562 21.8865 28.5622 21.8864 28.5624 21.8863C28.5626 21.8862 28.5628 21.8861 28.563 21.886C28.5633 21.886 28.5635 21.8859 28.5637 21.8858C28.5639 21.8857 28.5641 21.8856 28.5643 21.8855C28.5646 21.8855 28.5648 21.8854 28.565 21.8853C28.5652 21.8852 28.5654 21.8851 28.5656 21.885C28.5659 21.8849 28.5661 21.8849 28.5663 21.8848C28.5665 21.8847 28.5667 21.8846 28.567 21.8845C28.5672 21.8844 28.5674 21.8843 28.5676 21.8842C28.5679 21.8842 28.5681 21.8841 28.5683 21.884C28.5685 21.8839 28.5688 21.8838 28.569 21.8837C28.5692 21.8836 28.5694 21.8835 28.5697 21.8835C28.5699 21.8834 28.5701 21.8833 28.5704 21.8832C28.5706 21.8831 28.5708 21.883 28.571 21.8829C28.5713 21.8828 28.5715 21.8827 28.5717 21.8826C28.572 21.8826 28.5722 21.8825 28.5724 21.8824C28.5727 21.8823 28.5729 21.8822 28.5731 21.8821C28.5734 21.882 28.5736 21.8819 28.5738 21.8818C28.5741 21.8817 28.5743 21.8816 28.5745 21.8815C28.5748 21.8814 28.575 21.8814 28.5753 21.8813C28.5755 21.8812 28.5757 21.8811 28.576 21.881C28.5762 21.8809 28.5765 21.8808 28.5767 21.8807C28.5769 21.8806 28.5772 21.8805 28.5774 21.8804C28.5777 21.8803 28.5779 21.8802 28.5782 21.8801C28.5784 21.88 28.5786 21.8799 28.5789 21.8798C28.5791 21.8797 28.5794 21.8796 28.5796 21.8796C28.5799 21.8795 28.5801 21.8794 28.5804 21.8793C28.5806 21.8792 28.5809 21.8791 28.5811 21.879C28.5814 21.8789 28.5816 21.8788 28.5819 21.8787C28.5821 21.8786 28.5824 21.8785 28.5826 21.8784C28.5829 21.8783 28.5831 21.8782 28.5834 21.8781C28.5836 21.878 28.5839 21.8779 28.5841 21.8778C28.5844 21.8777 28.5847 21.8776 28.5849 21.8775C28.5852 21.8774 28.5854 21.8773 28.5857 21.8772C28.5859 21.8771 28.5862 21.877 28.5865 21.8769C28.5867 21.8768 28.587 21.8767 28.5872 21.8766C28.5875 21.8765 28.5878 21.8764 28.588 21.8763C28.5883 21.8762 28.5885 21.8761 28.5888 21.876C28.5891 21.8759 28.5893 21.8758 28.5896 21.8757C28.5899 21.8755 28.5901 21.8754 28.5904 21.8753C28.5907 21.8752 28.5909 21.8751 28.5912 21.875C28.5915 21.8749 28.5917 21.8748 28.592 21.8747C28.5923 21.8746 28.5925 21.8745 28.5928 21.8744C28.5931 21.8743 28.5933 21.8742 28.5936 21.8741C28.5939 21.874 28.5942 21.8739 28.5944 21.8738C28.5947 21.8737 28.595 21.8735 28.5953 21.8734C28.5955 21.8733 28.5958 21.8732 28.5961 21.8731C28.5964 21.873 28.5966 21.8729 28.5969 21.8728C28.5972 21.8727 28.5975 21.8726 28.5977 21.8725C28.598 21.8724 28.5983 21.8722 28.5986 21.8721C28.5989 21.872 28.5991 21.8719 28.5994 21.8718C28.5997 21.8717 28.6 21.8716 28.6003 21.8715C28.6005 21.8714 28.6008 21.8713 28.6011 21.8711C28.6014 21.871 28.6017 21.8709 28.602 21.8708C28.6023 21.8707 28.6025 21.8706 28.6028 21.8705C28.6031 21.8704 28.6034 21.8703 28.6037 21.8701C28.604 21.87 28.6043 21.8699 28.6046 21.8698C28.6048 21.8697 28.6051 21.8696 28.6054 21.8695C28.6057 21.8693 28.606 21.8692 28.6063 21.8691C28.6066 21.869 28.6069 21.8689 28.6072 21.8688C28.6075 21.8687 28.6078 21.8685 28.6081 21.8684C28.6084 21.8683 28.6086 21.8682 28.6089 21.8681C28.6092 21.868 28.6095 21.8678 28.6098 21.8677C28.6101 21.8676 28.6104 21.8675 28.6107 21.8674C28.611 21.8673 28.6113 21.8671 28.6116 21.867C28.6119 21.8669 28.6122 21.8668 28.6125 21.8667C28.6128 21.8666 28.6131 21.8664 28.6134 21.8663C28.6137 21.8662 28.614 21.8661 28.6143 21.866C28.6147 21.8658 28.615 21.8657 28.6153 21.8656C28.6156 21.8655 28.6159 21.8654 28.6162 21.8652C28.6165 21.8651 28.6168 21.865 28.6171 21.8649C28.6174 21.8648 28.6177 21.8646 28.618 21.8645C28.6183 21.8644 28.6187 21.8643 28.619 21.8642C28.6193 21.864 28.6196 21.8639 28.6199 21.8638C28.6202 21.8637 28.6205 21.8635 28.6208 21.8634C28.6212 21.8633 28.6215 21.8632 28.6218 21.8631C28.6221 21.8629 28.6224 21.8628 28.6227 21.8627C28.623 21.8626 28.6234 21.8624 28.6237 21.8623C28.624 21.8622 28.6243 21.8621 28.6246 21.8619C28.625 21.8618 28.6253 21.8617 28.6256 21.8616C28.6259 21.8614 28.6262 21.8613 28.6266 21.8612C28.6269 21.8611 28.6272 21.8609 28.6275 21.8608C28.6279 21.8607 28.6282 21.8606 28.6285 21.8604C28.6288 21.8603 28.6292 21.8602 28.6295 21.86C28.6298 21.8599 28.6301 21.8598 28.6305 21.8597C28.6308 21.8595 28.6311 21.8594 28.6314 21.8593C28.6318 21.8591 28.6321 21.859 28.6324 21.8589C28.6328 21.8588 28.6331 21.8586 28.6334 21.8585C28.6338 21.8584 28.6341 21.8582 28.6344 21.8581C28.6348 21.858 28.6351 21.8578 28.6354 21.8577C28.6358 21.8576 28.6361 21.8575 28.6364 21.8573C28.6368 21.8572 28.6371 21.8571 28.6374 21.8569C28.6378 21.8568 28.6381 21.8567 28.6385 21.8565C28.6388 21.8564 28.6391 21.8563 28.6395 21.8561C28.6398 21.856 28.6402 21.8559 28.6405 21.8557C28.6408 21.8556 28.6412 21.8555 28.6415 21.8553C28.6419 21.8552 28.6422 21.8551 28.6426 21.8549C28.6429 21.8548 28.6432 21.8547 28.6436 21.8545C28.6439 21.8544 28.6443 21.8543 28.6446 21.8541C28.645 21.854 28.6453 21.8538 28.6457 21.8537C28.646 21.8536 28.6464 21.8534 28.6467 21.8533C28.6471 21.8532 28.6474 21.853 28.6478 21.8529C28.6481 21.8528 28.6485 21.8526 28.6488 21.8525C28.6492 21.8523 28.6495 21.8522 28.6499 21.8521C28.6502 21.8519 28.6506 21.8518 28.6509 21.8516C28.6513 21.8515 28.6517 21.8514 28.652 21.8512C28.6524 21.8511 28.6527 21.8509 28.6531 21.8508C28.6534 21.8507 28.6538 21.8505 28.6542 21.8504C28.6545 21.8502 28.6549 21.8501 28.6552 21.85C28.6556 21.8498 28.656 21.8497 28.6563 21.8495C28.6567 21.8494 28.657 21.8493 28.6574 21.8491C28.6578 21.849 28.6581 21.8488 28.6585 21.8487C28.6589 21.8485 28.6592 21.8484 28.6596 21.8483C28.66 21.8481 28.6603 21.848 28.6607 21.8478C28.6611 21.8477 28.6614 21.8475 28.6618 21.8474C28.6622 21.8473 28.6625 21.8471 28.6629 21.847C28.6633 21.8468 28.6637 21.8467 28.664 21.8465C28.6644 21.8464 28.6648 21.8462 28.6651 21.8461C28.6655 21.8459 28.6659 21.8458 28.6663 21.8457C28.6666 21.8455 28.667 21.8454 28.6674 21.8452C28.6678 21.8451 28.6681 21.8449 28.6685 21.8448C28.6689 21.8446 28.6693 21.8445 28.6696 21.8443C28.67 21.8442 28.6704 21.844 28.6708 21.8439C28.6712 21.8437 28.6715 21.8436 28.6719 21.8434C28.6723 21.8433 28.6727 21.8431 28.6731 21.843C28.6735 21.8428 28.6738 21.8427 28.6742 21.8425C28.6746 21.8424 28.675 21.8422 28.6754 21.8421C28.6758 21.8419 28.6761 21.8418 28.6765 21.8416C28.6769 21.8415 28.6773 21.8413 28.6777 21.8412C28.6781 21.841 28.6785 21.8409 28.6789 21.8407C28.6792 21.8406 28.6796 21.8404 28.68 21.8403C28.6804 21.8401 28.6808 21.84 28.6812 21.8398C28.6816 21.8397 28.682 21.8395 28.6824 21.8393C28.6828 21.8392 28.6832 21.839 28.6836 21.8389C28.684 21.8387 28.6844 21.8386 28.6848 21.8384C28.6851 21.8383 28.6855 21.8381 28.6859 21.838C28.6863 21.8378 28.6867 21.8376 28.6871 21.8375C28.6875 21.8373 28.6879 21.8372 28.6883 21.837C28.6887 21.8369 28.6891 21.8367 28.6895 21.8365C28.6899 21.8364 28.6903 21.8362 28.6907 21.8361C28.6911 21.8359 28.6916 21.8358 28.692 21.8356C28.6924 21.8354 28.6928 21.8353 28.6932 21.8351C28.6936 21.835 28.694 21.8348 28.6944 21.8346C28.6948 21.8345 28.6952 21.8343 28.6956 21.8342C28.696 21.834 28.6964 21.8338 28.6968 21.8337C28.6973 21.8335 28.6977 21.8334 28.6981 21.8332C28.6985 21.833 28.6989 21.8329 28.6993 21.8327C28.6997 21.8326 28.7001 21.8324 28.7006 21.8322C28.701 21.8321 28.7014 21.8319 28.7018 21.8317C28.7022 21.8316 28.7026 21.8314 28.703 21.8313C28.7035 21.8311 28.7039 21.8309 28.7043 21.8308C28.7047 21.8306 28.7051 21.8304 28.7056 21.8303C28.706 21.8301 28.7064 21.83 28.7068 21.8298C28.7072 21.8296 28.7077 21.8295 28.7081 21.8293C28.7085 21.8291 28.7089 21.829 28.7093 21.8288C28.7098 21.8286 28.7102 21.8285 28.7106 21.8283C28.711 21.8281 28.7115 21.828 28.7119 21.8278C28.7123 21.8276 28.7127 21.8275 28.7132 21.8273C28.7136 21.8271 28.714 21.827 28.7145 21.8268C28.7149 21.8266 28.7153 21.8265 28.7158 21.8263C28.7162 21.8261 28.7166 21.826 28.717 21.8258C28.7175 21.8256 28.7179 21.8254 28.7183 21.8253C28.7188 21.8251 28.7192 21.8249 28.7196 21.8248C28.7201 21.8246 28.7205 21.8244 28.7209 21.8243C28.7214 21.8241 28.7218 21.8239 28.7223 21.8237C28.7227 21.8236 28.7231 21.8234 28.7236 21.8232C28.724 21.8231 28.7245 21.8229 28.7249 21.8227C28.7253 21.8225 28.7258 21.8224 28.7262 21.8222C28.7267 21.822 28.7271 21.8218 28.7275 21.8217C28.728 21.8215 28.7284 21.8213 28.7289 21.8212C28.7293 21.821 28.7298 21.8208 28.7302 21.8206C28.7307 21.8205 28.7311 21.8203 28.7315 21.8201C28.732 21.8199 28.7324 21.8198 28.7329 21.8196C28.7333 21.8194 28.7338 21.8192 28.7342 21.8191C28.7347 21.8189 28.7351 21.8187 28.7356 21.8185C28.736 21.8184 28.7365 21.8182 28.7369 21.818C28.7374 21.8178 28.7378 21.8176 28.7383 21.8175C28.7388 21.8173 28.7392 21.8171 28.7397 21.8169C28.7401 21.8168 28.7406 21.8166 28.741 21.8164C28.7415 21.8162 28.7419 21.816 28.7424 21.8159C28.7429 21.8157 28.7433 21.8155 28.7438 21.8153C28.7442 21.8151 28.7447 21.815 28.7452 21.8148C28.7456 21.8146 28.7461 21.8144 28.7465 21.8142C28.747 21.8141 28.7475 21.8139 28.7479 21.8137C28.7484 21.8135 28.7489 21.8133 28.7493 21.8132C28.7498 21.813 28.7503 21.8128 28.7507 21.8126C28.7512 21.8124 28.7517 21.8122 28.7521 21.8121C28.7526 21.8119 28.7531 21.8117 28.7535 21.8115C28.754 21.8113 28.7545 21.8111 28.7549 21.811C28.7554 21.8108 28.7559 21.8106 28.7563 21.8104C28.7568 21.8102 28.7573 21.81 28.7578 21.8098C28.7582 21.8097 28.7587 21.8095 28.7592 21.8093C28.7597 21.8091 28.7601 21.8089 28.7606 21.8087C28.7611 21.8085 28.7616 21.8084 28.762 21.8082C28.7625 21.808 28.763 21.8078 28.7635 21.8076C28.7639 21.8074 28.7644 21.8072 28.7649 21.8071C28.7654 21.8069 28.7659 21.8067 28.7663 21.8065C28.7668 21.8063 28.7673 21.8061 28.7678 21.8059C28.7683 21.8057 28.7688 21.8055 28.7692 21.8054C28.7697 21.8052 28.7702 21.805 28.7707 21.8048C28.7712 21.8046 28.7717 21.8044 28.7722 21.8042C28.7726 21.804 28.7731 21.8038 28.7736 21.8036C28.7741 21.8035 28.7746 21.8033 28.7751 21.8031C28.7756 21.8029 28.7761 21.8027 28.7766 21.8025C28.777 21.8023 28.7775 21.8021 28.778 21.8019C28.7785 21.8017 28.779 21.8015 28.7795 21.8013C28.78 21.8011 28.7805 21.801 28.781 21.8008C28.7815 21.8006 28.782 21.8004 28.7825 21.8002C28.783 21.8 28.7835 21.7998 28.784 21.7996C28.7845 21.7994 28.785 21.7992 28.7855 21.799C28.786 21.7988 28.7865 21.7986 28.787 21.7984C28.7875 21.7982 28.788 21.798 28.7885 21.7978C28.789 21.7976 28.7895 21.7974 28.79 21.7972C28.7905 21.797 28.791 21.7969 28.7915 21.7967C28.792 21.7965 28.7925 21.7963 28.793 21.7961C28.7935 21.7959 28.794 21.7957 28.7945 21.7955C28.795 21.7953 28.7955 21.7951 28.796 21.7949C28.7966 21.7947 28.7971 21.7945 28.7976 21.7943C28.7981 21.7941 28.7986 21.7939 28.7991 21.7937C28.7996 21.7935 28.8001 21.7933 28.8006 21.7931C28.8012 21.7929 28.8017 21.7927 28.8022 21.7925C28.8027 21.7923 28.8032 21.7921 28.8037 21.7919C28.8042 21.7917 28.8048 21.7915 28.8053 21.7913C28.8058 21.7911 28.8063 21.7909 28.8068 21.7907C28.8073 21.7904 28.8079 21.7902 28.8084 21.79C28.8089 21.7898 28.8094 21.7896 28.8099 21.7894C28.8105 21.7892 28.811 21.789 28.8115 21.7888C28.812 21.7886 28.8126 21.7884 28.8131 21.7882C28.8136 21.788 28.8141 21.7878 28.8146 21.7876C28.8152 21.7874 28.8157 21.7872 28.8162 21.787C28.8168 21.7868 28.8173 21.7866 28.8178 21.7864C28.8183 21.7861 28.8189 21.7859 28.8194 21.7857C28.8199 21.7855 28.8205 21.7853 28.821 21.7851C28.8215 21.7849 28.822 21.7847 28.8226 21.7845C28.8231 21.7843 28.8236 21.7841 28.8242 21.7839C28.8247 21.7837 28.8252 21.7834 28.8258 21.7832C28.8263 21.783 28.8268 21.7828 28.8274 21.7826C28.8279 21.7824 28.8285 21.7822 28.829 21.782C28.8295 21.7818 28.8301 21.7816 28.8306 21.7813C28.8311 21.7811 28.8317 21.7809 28.8322 21.7807C28.8328 21.7805 28.8333 21.7803 28.8338 21.7801C28.8344 21.7799 28.8349 21.7797 28.8355 21.7794C28.836 21.7792 28.8366 21.779 28.8371 21.7788C28.8376 21.7786 28.8382 21.7784 28.8387 21.7782C28.8393 21.7779 28.8398 21.7777 28.8404 21.7775C28.8409 21.7773 28.8415 21.7771 28.842 21.7769C28.8426 21.7767 28.8431 21.7764 28.8437 21.7762C28.8442 21.776 28.8448 21.7758 28.8453 21.7756C28.8459 21.7754 28.8464 21.7752 28.847 21.7749C28.8475 21.7747 28.8481 21.7745 28.8486 21.7743C28.8492 21.7741 28.8497 21.7739 28.8503 21.7736C28.8509 21.7734 28.8514 21.7732 28.852 21.773C28.8525 21.7728 28.8531 21.7726 28.8536 21.7723C28.8542 21.7721 28.8548 21.7719 28.8553 21.7717C28.8559 21.7715 28.8564 21.7712 28.857 21.771C28.8576 21.7708 28.8581 21.7706 28.8587 21.7704C28.8592 21.7701 28.8598 21.7699 28.8604 21.7697C28.8609 21.7695 28.8615 21.7693 28.8621 21.769C28.8626 21.7688 28.8632 21.7686 28.8638 21.7684C28.8643 21.7682 28.8649 21.7679 28.8655 21.7677C28.866 21.7675 28.8666 21.7673 28.8672 21.767C28.8677 21.7668 28.8683 21.7666 28.8689 21.7664C28.8694 21.7661 28.87 21.7659 28.8706 21.7657C28.8712 21.7655 28.8717 21.7653 28.8723 21.765C28.8729 21.7648 28.8734 21.7646 28.874 21.7644C28.8746 21.7641 28.8752 21.7639 28.8757 21.7637C28.8763 21.7635 28.8769 21.7632 28.8775 21.763C28.8781 21.7628 28.8786 21.7626 28.8792 21.7623C28.8798 21.7621 28.8804 21.7619 28.8809 21.7616C28.8815 21.7614 28.8821 21.7612 28.8827 21.761C28.8833 21.7607 28.8838 21.7605 28.8844 21.7603C28.885 21.7601 28.8856 21.7598 28.8862 21.7596C28.8868 21.7594 28.8874 21.7591 28.8879 21.7589C28.8885 21.7587 28.8891 21.7585 28.8897 21.7582C28.8903 21.758 28.8909 21.7578 28.8915 21.7575C28.892 21.7573 28.8926 21.7571 28.8932 21.7568C28.8938 21.7566 28.8944 21.7564 28.895 21.7561C28.8956 21.7559 28.8962 21.7557 28.8968 21.7555C28.8974 21.7552 28.898 21.755 28.8985 21.7548C28.8991 21.7545 28.8997 21.7543 28.9003 21.7541C28.9009 21.7538 28.9015 21.7536 28.9021 21.7534C28.9027 21.7531 28.9033 21.7529 28.9039 21.7527C28.9045 21.7524 28.9051 21.7522 28.9057 21.752C28.9063 21.7517 28.9069 21.7515 28.9075 21.7513C28.9081 21.751 28.9087 21.7508 28.9093 21.7505C28.9099 21.7503 28.9105 21.7501 28.9111 21.7498C28.9117 21.7496 28.9123 21.7494 28.9129 21.7491C28.9135 21.7489 28.9141 21.7487 28.9147 21.7484C28.9153 21.7482 28.916 21.7479 28.9166 21.7477C28.9172 21.7475 28.9178 21.7472 28.9184 21.747C28.919 21.7468 28.9196 21.7465 28.9202 21.7463C28.9208 21.746 28.9214 21.7458 28.922 21.7456C28.9227 21.7453 28.9233 21.7451 28.9239 21.7448C28.9245 21.7446 28.9251 21.7444 28.9257 21.7441C28.9263 21.7439 28.927 21.7436 28.9276 21.7434C28.9282 21.7432 28.9288 21.7429 28.9294 21.7427C28.93 21.7424 28.9306 21.7422 28.9313 21.742C28.9319 21.7417 28.9325 21.7415 28.9331 21.7412C28.9337 21.741 28.9344 21.7407 28.935 21.7405C28.9356 21.7403 28.9362 21.74 28.9369 21.7398C28.9375 21.7395 28.9381 21.7393 28.9387 21.739C28.9393 21.7388 28.94 21.7386 28.9406 21.7383C28.9412 21.7381 28.9418 21.7378 28.9425 21.7376C28.9431 21.7373 28.9437 21.7371 28.9444 21.7368C28.945 21.7366 28.9456 21.7363 28.9462 21.7361C28.9469 21.7359 28.9475 21.7356 28.9481 21.7354C28.9488 21.7351 28.9494 21.7349 28.95 21.7346C28.9507 21.7344 28.9513 21.7341 28.9519 21.7339C28.9526 21.7336 28.9532 21.7334 28.9538 21.7331C28.9545 21.7329 28.9551 21.7326 28.9557 21.7324C28.9564 21.7321 28.957 21.7319 28.9576 21.7316C28.9583 21.7314 28.9589 21.7311 28.9596 21.7309C28.9602 21.7306 28.9608 21.7304 28.9615 21.7301C28.9621 21.7299 28.9628 21.7296 28.9634 21.7294C28.964 21.7291 28.9647 21.7289 28.9653 21.7286C28.966 21.7284 28.9666 21.7281 28.9673 21.7279C28.9679 21.7276 28.9685 21.7274 28.9692 21.7271C28.9698 21.7269 28.9705 21.7266 28.9711 21.7264C28.9718 21.7261 28.9724 21.7259 28.9731 21.7256C28.9737 21.7253 28.9744 21.7251 28.975 21.7248C28.9757 21.7246 28.9763 21.7243 28.977 21.7241C28.9776 21.7238 28.9783 21.7236 28.9789 21.7233C28.9796 21.7231 28.9802 21.7228 28.9809 21.7225C28.9815 21.7223 28.9822 21.722 28.9828 21.7218C28.9835 21.7215 28.9842 21.7213 28.9848 21.721C28.9855 21.7207 28.9861 21.7205 28.9868 21.7202C28.9874 21.72 28.9881 21.7197 28.9888 21.7195C28.9894 21.7192 28.9901 21.7189 28.9907 21.7187C28.9914 21.7184 28.9921 21.7182 28.9927 21.7179C28.9934 21.7176 28.9941 21.7174 28.9947 21.7171C28.9954 21.7169 28.996 21.7166 28.9967 21.7163C28.9974 21.7161 28.998 21.7158 28.9987 21.7156C28.9994 21.7153 29 21.715 29.0007 21.7148C29.0014 21.7145 29.002 21.7143 29.0027 21.714C29.0034 21.7137 29.0041 21.7135 29.0047 21.7132C29.0054 21.713 29.0061 21.7127 29.0067 21.7124C29.0074 21.7122 29.0081 21.7119 29.0088 21.7116C29.0094 21.7114 29.0101 21.7111 29.0108 21.7108C29.0114 21.7106 29.0121 21.7103 29.0128 21.7101C29.0135 21.7098 29.0142 21.7095 29.0148 21.7093C29.0155 21.709 29.0162 21.7087 29.0169 21.7085C29.0175 21.7082 29.0182 21.7079 29.0189 21.7077C29.0196 21.7074 29.0203 21.7071 29.0209 21.7069C29.0216 21.7066 29.0223 21.7063 29.023 21.7061C29.0237 21.7058 29.0244 21.7055 29.025 21.7053C29.0257 21.705 29.0264 21.7047 29.0271 21.7045C29.0278 21.7042 29.0285 21.7039 29.0292 21.7037C29.0298 21.7034 29.0305 21.7031 29.0312 21.7028C29.0319 21.7026 29.0326 21.7023 29.0333 21.702C29.034 21.7018 29.0347 21.7015 29.0354 21.7012C29.036 21.701 29.0367 21.7007 29.0374 21.7004C29.0381 21.7001 29.0388 21.6999 29.0395 21.6996C29.0402 21.6993 29.0409 21.6991 29.0416 21.6988C29.0423 21.6985 29.043 21.6982 29.0437 21.698C29.0444 21.6977 29.0451 21.6974 29.0458 21.6972C29.0465 21.6969 29.0472 21.6966 29.0479 21.6963C29.0486 21.6961 29.0493 21.6958 29.05 21.6955C29.0507 21.6952 29.0514 21.695 29.0521 21.6947L28.9792 21.5084C28.9785 21.5087 28.9778 21.509 28.9771 21.5093C28.9764 21.5095 28.9757 21.5098 28.975 21.5101C28.9743 21.5104 28.9736 21.5106 28.9729 21.5109C28.9722 21.5112 28.9715 21.5114 28.9708 21.5117C28.9701 21.512 28.9694 21.5123 28.9687 21.5125C28.968 21.5128 28.9673 21.5131 28.9666 21.5134C28.9659 21.5136 28.9652 21.5139 28.9645 21.5142C28.9639 21.5144 28.9632 21.5147 28.9625 21.515C28.9618 21.5152 28.9611 21.5155 28.9604 21.5158C28.9597 21.5161 28.959 21.5163 28.9583 21.5166C28.9576 21.5169 28.957 21.5171 28.9563 21.5174C28.9556 21.5177 28.9549 21.5179 28.9542 21.5182C28.9535 21.5185 28.9528 21.5187 28.9522 21.519C28.9515 21.5193 28.9508 21.5195 28.9501 21.5198C28.9494 21.5201 28.9487 21.5204 28.9481 21.5206C28.9474 21.5209 28.9467 21.5211 28.946 21.5214C28.9453 21.5217 28.9447 21.5219 28.944 21.5222C28.9433 21.5225 28.9426 21.5227 28.9419 21.523C28.9413 21.5233 28.9406 21.5235 28.9399 21.5238C28.9392 21.5241 28.9386 21.5243 28.9379 21.5246C28.9372 21.5249 28.9365 21.5251 28.9359 21.5254C28.9352 21.5257 28.9345 21.5259 28.9339 21.5262C28.9332 21.5264 28.9325 21.5267 28.9318 21.527C28.9312 21.5272 28.9305 21.5275 28.9298 21.5278C28.9292 21.528 28.9285 21.5283 28.9278 21.5285C28.9272 21.5288 28.9265 21.5291 28.9258 21.5293C28.9252 21.5296 28.9245 21.5298 28.9238 21.5301C28.9232 21.5304 28.9225 21.5306 28.9218 21.5309C28.9212 21.5311 28.9205 21.5314 28.9198 21.5317C28.9192 21.5319 28.9185 21.5322 28.9179 21.5324C28.9172 21.5327 28.9165 21.533 28.9159 21.5332C28.9152 21.5335 28.9146 21.5337 28.9139 21.534C28.9132 21.5342 28.9126 21.5345 28.9119 21.5348C28.9113 21.535 28.9106 21.5353 28.91 21.5355C28.9093 21.5358 28.9087 21.536 28.908 21.5363C28.9074 21.5365 28.9067 21.5368 28.906 21.5371C28.9054 21.5373 28.9047 21.5376 28.9041 21.5378C28.9034 21.5381 28.9028 21.5383 28.9021 21.5386C28.9015 21.5388 28.9008 21.5391 28.9002 21.5393C28.8995 21.5396 28.8989 21.5399 28.8982 21.5401C28.8976 21.5404 28.897 21.5406 28.8963 21.5409C28.8957 21.5411 28.895 21.5414 28.8944 21.5416C28.8937 21.5419 28.8931 21.5421 28.8924 21.5424C28.8918 21.5426 28.8912 21.5429 28.8905 21.5431C28.8899 21.5434 28.8892 21.5436 28.8886 21.5439C28.888 21.5441 28.8873 21.5444 28.8867 21.5446C28.886 21.5449 28.8854 21.5451 28.8848 21.5454C28.8841 21.5456 28.8835 21.5459 28.8828 21.5461C28.8822 21.5464 28.8816 21.5466 28.8809 21.5469C28.8803 21.5471 28.8797 21.5474 28.879 21.5476C28.8784 21.5479 28.8778 21.5481 28.8771 21.5484C28.8765 21.5486 28.8759 21.5489 28.8752 21.5491C28.8746 21.5494 28.874 21.5496 28.8734 21.5498C28.8727 21.5501 28.8721 21.5503 28.8715 21.5506C28.8708 21.5508 28.8702 21.5511 28.8696 21.5513C28.869 21.5516 28.8683 21.5518 28.8677 21.5521C28.8671 21.5523 28.8665 21.5525 28.8658 21.5528C28.8652 21.553 28.8646 21.5533 28.864 21.5535C28.8633 21.5538 28.8627 21.554 28.8621 21.5543C28.8615 21.5545 28.8609 21.5547 28.8602 21.555C28.8596 21.5552 28.859 21.5555 28.8584 21.5557C28.8578 21.5559 28.8572 21.5562 28.8565 21.5564C28.8559 21.5567 28.8553 21.5569 28.8547 21.5572C28.8541 21.5574 28.8535 21.5576 28.8528 21.5579C28.8522 21.5581 28.8516 21.5584 28.851 21.5586C28.8504 21.5588 28.8498 21.5591 28.8492 21.5593C28.8486 21.5596 28.8479 21.5598 28.8473 21.56C28.8467 21.5603 28.8461 21.5605 28.8455 21.5607C28.8449 21.561 28.8443 21.5612 28.8437 21.5615C28.8431 21.5617 28.8425 21.5619 28.8419 21.5622C28.8413 21.5624 28.8407 21.5626 28.84 21.5629C28.8394 21.5631 28.8388 21.5634 28.8382 21.5636C28.8376 21.5638 28.837 21.5641 28.8364 21.5643C28.8358 21.5645 28.8352 21.5648 28.8346 21.565C28.834 21.5652 28.8334 21.5655 28.8328 21.5657C28.8322 21.5659 28.8316 21.5662 28.831 21.5664C28.8304 21.5666 28.8298 21.5669 28.8292 21.5671C28.8286 21.5673 28.828 21.5676 28.8275 21.5678C28.8269 21.568 28.8263 21.5683 28.8257 21.5685C28.8251 21.5687 28.8245 21.569 28.8239 21.5692C28.8233 21.5694 28.8227 21.5697 28.8221 21.5699C28.8215 21.5701 28.8209 21.5704 28.8203 21.5706C28.8198 21.5708 28.8192 21.5711 28.8186 21.5713C28.818 21.5715 28.8174 21.5717 28.8168 21.572C28.8162 21.5722 28.8156 21.5724 28.8151 21.5727C28.8145 21.5729 28.8139 21.5731 28.8133 21.5733C28.8127 21.5736 28.8121 21.5738 28.8116 21.574C28.811 21.5743 28.8104 21.5745 28.8098 21.5747C28.8092 21.5749 28.8086 21.5752 28.8081 21.5754C28.8075 21.5756 28.8069 21.5759 28.8063 21.5761C28.8057 21.5763 28.8052 21.5765 28.8046 21.5768C28.804 21.577 28.8034 21.5772 28.8029 21.5774C28.8023 21.5777 28.8017 21.5779 28.8011 21.5781C28.8006 21.5783 28.8 21.5786 28.7994 21.5788C28.7988 21.579 28.7983 21.5792 28.7977 21.5795C28.7971 21.5797 28.7966 21.5799 28.796 21.5801C28.7954 21.5803 28.7948 21.5806 28.7943 21.5808C28.7937 21.581 28.7931 21.5812 28.7926 21.5815C28.792 21.5817 28.7914 21.5819 28.7909 21.5821C28.7903 21.5823 28.7897 21.5826 28.7892 21.5828C28.7886 21.583 28.788 21.5832 28.7875 21.5835C28.7869 21.5837 28.7864 21.5839 28.7858 21.5841C28.7852 21.5843 28.7847 21.5846 28.7841 21.5848C28.7836 21.585 28.783 21.5852 28.7824 21.5854C28.7819 21.5856 28.7813 21.5859 28.7808 21.5861C28.7802 21.5863 28.7796 21.5865 28.7791 21.5867C28.7785 21.587 28.778 21.5872 28.7774 21.5874C28.7769 21.5876 28.7763 21.5878 28.7758 21.588C28.7752 21.5883 28.7746 21.5885 28.7741 21.5887C28.7735 21.5889 28.773 21.5891 28.7724 21.5893C28.7719 21.5896 28.7713 21.5898 28.7708 21.59C28.7702 21.5902 28.7697 21.5904 28.7691 21.5906C28.7686 21.5908 28.768 21.5911 28.7675 21.5913C28.767 21.5915 28.7664 21.5917 28.7659 21.5919C28.7653 21.5921 28.7648 21.5923 28.7642 21.5926C28.7637 21.5928 28.7631 21.593 28.7626 21.5932C28.762 21.5934 28.7615 21.5936 28.761 21.5938C28.7604 21.594 28.7599 21.5943 28.7593 21.5945C28.7588 21.5947 28.7583 21.5949 28.7577 21.5951C28.7572 21.5953 28.7566 21.5955 28.7561 21.5957C28.7556 21.5959 28.755 21.5961 28.7545 21.5964C28.754 21.5966 28.7534 21.5968 28.7529 21.597C28.7524 21.5972 28.7518 21.5974 28.7513 21.5976C28.7508 21.5978 28.7502 21.598 28.7497 21.5982C28.7492 21.5984 28.7486 21.5987 28.7481 21.5989C28.7476 21.5991 28.747 21.5993 28.7465 21.5995C28.746 21.5997 28.7455 21.5999 28.7449 21.6001C28.7444 21.6003 28.7439 21.6005 28.7433 21.6007C28.7428 21.6009 28.7423 21.6011 28.7418 21.6013C28.7412 21.6015 28.7407 21.6018 28.7402 21.602C28.7397 21.6022 28.7391 21.6024 28.7386 21.6026C28.7381 21.6028 28.7376 21.603 28.7371 21.6032C28.7365 21.6034 28.736 21.6036 28.7355 21.6038C28.735 21.604 28.7345 21.6042 28.7339 21.6044C28.7334 21.6046 28.7329 21.6048 28.7324 21.605C28.7319 21.6052 28.7314 21.6054 28.7308 21.6056C28.7303 21.6058 28.7298 21.606 28.7293 21.6062C28.7288 21.6064 28.7283 21.6066 28.7278 21.6068C28.7272 21.607 28.7267 21.6072 28.7262 21.6074C28.7257 21.6076 28.7252 21.6078 28.7247 21.608C28.7242 21.6082 28.7237 21.6084 28.7232 21.6086C28.7227 21.6088 28.7221 21.609 28.7216 21.6092C28.7211 21.6094 28.7206 21.6096 28.7201 21.6098C28.7196 21.61 28.7191 21.6102 28.7186 21.6104C28.7181 21.6106 28.7176 21.6108 28.7171 21.611C28.7166 21.6112 28.7161 21.6114 28.7156 21.6116C28.7151 21.6118 28.7146 21.612 28.7141 21.6122C28.7136 21.6124 28.7131 21.6126 28.7126 21.6128C28.7121 21.613 28.7116 21.6132 28.7111 21.6133C28.7106 21.6135 28.7101 21.6137 28.7096 21.6139C28.7091 21.6141 28.7086 21.6143 28.7081 21.6145C28.7076 21.6147 28.7071 21.6149 28.7066 21.6151C28.7061 21.6153 28.7056 21.6155 28.7051 21.6157C28.7047 21.6159 28.7042 21.6161 28.7037 21.6162C28.7032 21.6164 28.7027 21.6166 28.7022 21.6168C28.7017 21.617 28.7012 21.6172 28.7007 21.6174C28.7002 21.6176 28.6998 21.6178 28.6993 21.618C28.6988 21.6182 28.6983 21.6183 28.6978 21.6185C28.6973 21.6187 28.6968 21.6189 28.6964 21.6191C28.6959 21.6193 28.6954 21.6195 28.6949 21.6197C28.6944 21.6199 28.6939 21.6201 28.6935 21.6202C28.693 21.6204 28.6925 21.6206 28.692 21.6208C28.6915 21.621 28.6911 21.6212 28.6906 21.6214C28.6901 21.6216 28.6896 21.6217 28.6892 21.6219C28.6887 21.6221 28.6882 21.6223 28.6877 21.6225C28.6873 21.6227 28.6868 21.6229 28.6863 21.623C28.6858 21.6232 28.6854 21.6234 28.6849 21.6236C28.6844 21.6238 28.6839 21.624 28.6835 21.6242C28.683 21.6243 28.6825 21.6245 28.6821 21.6247C28.6816 21.6249 28.6811 21.6251 28.6806 21.6253C28.6802 21.6254 28.6797 21.6256 28.6792 21.6258C28.6788 21.626 28.6783 21.6262 28.6778 21.6264C28.6774 21.6265 28.6769 21.6267 28.6764 21.6269C28.676 21.6271 28.6755 21.6273 28.675 21.6274C28.6746 21.6276 28.6741 21.6278 28.6737 21.628C28.6732 21.6282 28.6727 21.6284 28.6723 21.6285C28.6718 21.6287 28.6714 21.6289 28.6709 21.6291C28.6704 21.6293 28.67 21.6294 28.6695 21.6296C28.6691 21.6298 28.6686 21.63 28.6682 21.6301C28.6677 21.6303 28.6672 21.6305 28.6668 21.6307C28.6663 21.6309 28.6659 21.631 28.6654 21.6312C28.665 21.6314 28.6645 21.6316 28.6641 21.6317C28.6636 21.6319 28.6632 21.6321 28.6627 21.6323C28.6623 21.6325 28.6618 21.6326 28.6614 21.6328C28.6609 21.633 28.6605 21.6332 28.66 21.6333C28.6596 21.6335 28.6591 21.6337 28.6587 21.6339C28.6582 21.634 28.6578 21.6342 28.6573 21.6344C28.6569 21.6346 28.6564 21.6347 28.656 21.6349C28.6555 21.6351 28.6551 21.6353 28.6547 21.6354C28.6542 21.6356 28.6538 21.6358 28.6533 21.6359C28.6529 21.6361 28.6525 21.6363 28.652 21.6365C28.6516 21.6366 28.6511 21.6368 28.6507 21.637C28.6503 21.6371 28.6498 21.6373 28.6494 21.6375C28.6489 21.6377 28.6485 21.6378 28.6481 21.638C28.6476 21.6382 28.6472 21.6383 28.6468 21.6385C28.6463 21.6387 28.6459 21.6389 28.6455 21.639C28.645 21.6392 28.6446 21.6394 28.6442 21.6395C28.6437 21.6397 28.6433 21.6399 28.6429 21.64C28.6424 21.6402 28.642 21.6404 28.6416 21.6405C28.6412 21.6407 28.6407 21.6409 28.6403 21.641C28.6399 21.6412 28.6394 21.6414 28.639 21.6415C28.6386 21.6417 28.6382 21.6419 28.6377 21.642C28.6373 21.6422 28.6369 21.6424 28.6365 21.6425C28.636 21.6427 28.6356 21.6429 28.6352 21.643C28.6348 21.6432 28.6344 21.6434 28.6339 21.6435C28.6335 21.6437 28.6331 21.6439 28.6327 21.644C28.6323 21.6442 28.6318 21.6444 28.6314 21.6445C28.631 21.6447 28.6306 21.6448 28.6302 21.645C28.6297 21.6452 28.6293 21.6453 28.6289 21.6455C28.6285 21.6457 28.6281 21.6458 28.6277 21.646C28.6273 21.6461 28.6268 21.6463 28.6264 21.6465C28.626 21.6466 28.6256 21.6468 28.6252 21.647C28.6248 21.6471 28.6244 21.6473 28.624 21.6474C28.6236 21.6476 28.6231 21.6478 28.6227 21.6479C28.6223 21.6481 28.6219 21.6482 28.6215 21.6484C28.6211 21.6486 28.6207 21.6487 28.6203 21.6489C28.6199 21.649 28.6195 21.6492 28.6191 21.6493C28.6187 21.6495 28.6183 21.6497 28.6179 21.6498C28.6175 21.65 28.6171 21.6501 28.6167 21.6503C28.6163 21.6505 28.6159 21.6506 28.6155 21.6508C28.6151 21.6509 28.6147 21.6511 28.6143 21.6512C28.6139 21.6514 28.6135 21.6515 28.6131 21.6517C28.6127 21.6519 28.6123 21.652 28.6119 21.6522C28.6115 21.6523 28.6111 21.6525 28.6107 21.6526C28.6103 21.6528 28.6099 21.6529 28.6095 21.6531C28.6091 21.6533 28.6087 21.6534 28.6083 21.6536C28.6079 21.6537 28.6075 21.6539 28.6072 21.654C28.6068 21.6542 28.6064 21.6543 28.606 21.6545C28.6056 21.6546 28.6052 21.6548 28.6048 21.6549C28.6044 21.6551 28.604 21.6552 28.6037 21.6554C28.6033 21.6555 28.6029 21.6557 28.6025 21.6558C28.6021 21.656 28.6017 21.6561 28.6013 21.6563C28.601 21.6564 28.6006 21.6566 28.6002 21.6567C28.5998 21.6569 28.5994 21.657 28.599 21.6572C28.5987 21.6573 28.5983 21.6575 28.5979 21.6576C28.5975 21.6578 28.5971 21.6579 28.5968 21.6581C28.5964 21.6582 28.596 21.6584 28.5956 21.6585C28.5953 21.6587 28.5949 21.6588 28.5945 21.659C28.5941 21.6591 28.5938 21.6593 28.5934 21.6594C28.593 21.6596 28.5926 21.6597 28.5923 21.6598C28.5919 21.66 28.5915 21.6601 28.5911 21.6603C28.5908 21.6604 28.5904 21.6606 28.59 21.6607C28.5897 21.6609 28.5893 21.661 28.5889 21.6611C28.5886 21.6613 28.5882 21.6614 28.5878 21.6616C28.5875 21.6617 28.5871 21.6619 28.5867 21.662C28.5864 21.6622 28.586 21.6623 28.5856 21.6624C28.5853 21.6626 28.5849 21.6627 28.5845 21.6629C28.5842 21.663 28.5838 21.6632 28.5834 21.6633C28.5831 21.6634 28.5827 21.6636 28.5824 21.6637C28.582 21.6639 28.5816 21.664 28.5813 21.6641C28.5809 21.6643 28.5806 21.6644 28.5802 21.6646C28.5798 21.6647 28.5795 21.6648 28.5791 21.665C28.5788 21.6651 28.5784 21.6653 28.5781 21.6654C28.5777 21.6655 28.5774 21.6657 28.577 21.6658C28.5766 21.666 28.5763 21.6661 28.5759 21.6662C28.5756 21.6664 28.5752 21.6665 28.5749 21.6666C28.5745 21.6668 28.5742 21.6669 28.5738 21.6671C28.5735 21.6672 28.5731 21.6673 28.5728 21.6675C28.5724 21.6676 28.5721 21.6677 28.5717 21.6679C28.5714 21.668 28.5711 21.6681 28.5707 21.6683C28.5704 21.6684 28.57 21.6685 28.5697 21.6687C28.5693 21.6688 28.569 21.669 28.5686 21.6691C28.5683 21.6692 28.568 21.6694 28.5676 21.6695C28.5673 21.6696 28.5669 21.6698 28.5666 21.6699C28.5663 21.67 28.5659 21.6702 28.5656 21.6703C28.5652 21.6704 28.5649 21.6705 28.5646 21.6707C28.5642 21.6708 28.5639 21.6709 28.5636 21.6711C28.5632 21.6712 28.5629 21.6713 28.5626 21.6715C28.5622 21.6716 28.5619 21.6717 28.5615 21.6719C28.5612 21.672 28.5609 21.6721 28.5606 21.6723C28.5602 21.6724 28.5599 21.6725 28.5596 21.6726C28.5592 21.6728 28.5589 21.6729 28.5586 21.673C28.5582 21.6732 28.5579 21.6733 28.5576 21.6734C28.5573 21.6735 28.5569 21.6737 28.5566 21.6738C28.5563 21.6739 28.556 21.6741 28.5556 21.6742C28.5553 21.6743 28.555 21.6744 28.5547 21.6746C28.5543 21.6747 28.554 21.6748 28.5537 21.6749C28.5534 21.6751 28.553 21.6752 28.5527 21.6753C28.5524 21.6754 28.5521 21.6756 28.5518 21.6757C28.5514 21.6758 28.5511 21.6759 28.5508 21.6761C28.5505 21.6762 28.5502 21.6763 28.5499 21.6764C28.5495 21.6766 28.5492 21.6767 28.5489 21.6768C28.5486 21.6769 28.5483 21.6771 28.548 21.6772C28.5476 21.6773 28.5473 21.6774 28.547 21.6775C28.5467 21.6777 28.5464 21.6778 28.5461 21.6779C28.5458 21.678 28.5455 21.6782 28.5452 21.6783C28.5448 21.6784 28.5445 21.6785 28.5442 21.6786C28.5439 21.6788 28.5436 21.6789 28.5433 21.679C28.543 21.6791 28.5427 21.6792 28.5424 21.6794C28.5421 21.6795 28.5418 21.6796 28.5415 21.6797C28.5412 21.6798 28.5409 21.68 28.5406 21.6801C28.5403 21.6802 28.54 21.6803 28.5397 21.6804C28.5393 21.6805 28.539 21.6807 28.5387 21.6808C28.5384 21.6809 28.5381 21.681 28.5378 21.6811C28.5376 21.6813 28.5373 21.6814 28.537 21.6815C28.5367 21.6816 28.5364 21.6817 28.5361 21.6818C28.5358 21.6819 28.5355 21.6821 28.5352 21.6822C28.5349 21.6823 28.5346 21.6824 28.5343 21.6825C28.534 21.6826 28.5337 21.6828 28.5334 21.6829C28.5331 21.683 28.5328 21.6831 28.5325 21.6832C28.5323 21.6833 28.532 21.6834 28.5317 21.6836C28.5314 21.6837 28.5311 21.6838 28.5308 21.6839C28.5305 21.684 28.5302 21.6841 28.5299 21.6842C28.5297 21.6843 28.5294 21.6845 28.5291 21.6846C28.5288 21.6847 28.5285 21.6848 28.5282 21.6849C28.528 21.685 28.5277 21.6851 28.5274 21.6852C28.5271 21.6853 28.5268 21.6854 28.5265 21.6856C28.5263 21.6857 28.526 21.6858 28.5257 21.6859C28.5254 21.686 28.5251 21.6861 28.5249 21.6862C28.5246 21.6863 28.5243 21.6864 28.524 21.6865C28.5238 21.6867 28.5235 21.6868 28.5232 21.6869C28.5229 21.687 28.5227 21.6871 28.5224 21.6872C28.5221 21.6873 28.5218 21.6874 28.5216 21.6875C28.5213 21.6876 28.521 21.6877 28.5207 21.6878C28.5205 21.6879 28.5202 21.688 28.5199 21.6881C28.5197 21.6883 28.5194 21.6884 28.5191 21.6885C28.5189 21.6886 28.5186 21.6887 28.5183 21.6888C28.518 21.6889 28.5178 21.689 28.5175 21.6891C28.5172 21.6892 28.517 21.6893 28.5167 21.6894C28.5165 21.6895 28.5162 21.6896 28.5159 21.6897C28.5157 21.6898 28.5154 21.6899 28.5151 21.69C28.5149 21.6901 28.5146 21.6902 28.5144 21.6903C28.5141 21.6904 28.5138 21.6905 28.5136 21.6906C28.5133 21.6907 28.5131 21.6908 28.5128 21.6909C28.5125 21.691 28.5123 21.6911 28.512 21.6912C28.5118 21.6913 28.5115 21.6914 28.5113 21.6915C28.511 21.6916 28.5108 21.6917 28.5105 21.6918C28.5102 21.6919 28.51 21.692 28.5097 21.6921C28.5095 21.6922 28.5092 21.6923 28.509 21.6924C28.5087 21.6925 28.5085 21.6926 28.5082 21.6927C28.508 21.6928 28.5077 21.6929 28.5075 21.693C28.5072 21.6931 28.507 21.6932 28.5067 21.6933C28.5065 21.6934 28.5063 21.6935 28.506 21.6936C28.5058 21.6937 28.5055 21.6938 28.5053 21.6939C28.505 21.694 28.5048 21.6941 28.5045 21.6942C28.5043 21.6943 28.5041 21.6944 28.5038 21.6945C28.5036 21.6945 28.5033 21.6946 28.5031 21.6947C28.5029 21.6948 28.5026 21.6949 28.5024 21.695C28.5021 21.6951 28.5019 21.6952 28.5017 21.6953C28.5014 21.6954 28.5012 21.6955 28.501 21.6956C28.5007 21.6957 28.5005 21.6958 28.5003 21.6958C28.5 21.6959 28.4998 21.696 28.4996 21.6961C28.4993 21.6962 28.4991 21.6963 28.4989 21.6964C28.4986 21.6965 28.4984 21.6966 28.4982 21.6967C28.4979 21.6968 28.4977 21.6968 28.4975 21.6969C28.4972 21.697 28.497 21.6971 28.4968 21.6972C28.4966 21.6973 28.4963 21.6974 28.4961 21.6975C28.4959 21.6976 28.4957 21.6976 28.4954 21.6977C28.4952 21.6978 28.495 21.6979 28.4948 21.698C28.4945 21.6981 28.4943 21.6982 28.4941 21.6983C28.4939 21.6983 28.4936 21.6984 28.4934 21.6985C28.4932 21.6986 28.493 21.6987 28.4928 21.6988C28.4925 21.6989 28.4923 21.6989 28.4921 21.699C28.4919 21.6991 28.4917 21.6992 28.4915 21.6993C28.4912 21.6994 28.491 21.6995 28.4908 21.6995C28.4906 21.6996 28.4904 21.6997 28.4902 21.6998C28.49 21.6999 28.4897 21.7 28.4895 21.7C28.4893 21.7001 28.4891 21.7002 28.4889 21.7003C28.4887 21.7004 28.4885 21.7005 28.4883 21.7005C28.4881 21.7006 28.4878 21.7007 28.4876 21.7008C28.4874 21.7009 28.4872 21.7009 28.487 21.701C28.4868 21.7011 28.4866 21.7012 28.4864 21.7013C28.4862 21.7014 28.486 21.7014 28.4858 21.7015C28.4856 21.7016 28.4854 21.7017 28.4852 21.7018C28.485 21.7018 28.4848 21.7019 28.4846 21.702C28.4844 21.7021 28.4842 21.7021 28.484 21.7022C28.4838 21.7023 28.4836 21.7024 28.4834 21.7025C28.4832 21.7025 28.483 21.7026 28.4828 21.7027C28.4826 21.7028 28.4824 21.7028 28.4822 21.7029C28.482 21.703 28.4818 21.7031 28.4816 21.7032C28.4814 21.7032 28.4812 21.7033 28.481 21.7034C28.4808 21.7035 28.4806 21.7035 28.4804 21.7036C28.4802 21.7037 28.48 21.7038 28.4799 21.7038C28.4797 21.7039 28.4795 21.704 28.4793 21.7041C28.4791 21.7041 28.4789 21.7042 28.4787 21.7043C28.4785 21.7043 28.4783 21.7044 28.4782 21.7045C28.478 21.7046 28.4778 21.7046 28.4776 21.7047C28.4774 21.7048 28.4772 21.7049 28.477 21.7049C28.4769 21.705 28.4767 21.7051 28.4765 21.7051C28.4763 21.7052 28.4761 21.7053 28.476 21.7054C28.4758 21.7054 28.4756 21.7055 28.4754 21.7056C28.4752 21.7056 28.4751 21.7057 28.4749 21.7058C28.4747 21.7058 28.4745 21.7059 28.4743 21.706C28.4742 21.7061 28.474 21.7061 28.4738 21.7062C28.4736 21.7063 28.4735 21.7063 28.4733 21.7064C28.4731 21.7065 28.4729 21.7065 28.4728 21.7066C28.4726 21.7067 28.4724 21.7067 28.4723 21.7068C28.4721 21.7069 28.4719 21.7069 28.4717 21.707C28.4716 21.7071 28.4714 21.7071 28.4712 21.7072C28.4711 21.7073 28.4709 21.7073 28.4707 21.7074C28.4706 21.7075 28.4704 21.7075 28.4702 21.7076C28.4701 21.7077 28.4699 21.7077 28.4697 21.7078C28.4696 21.7079 28.4694 21.7079 28.4692 21.708C28.4691 21.708 28.4689 21.7081 28.4688 21.7082C28.4686 21.7082 28.4684 21.7083 28.4683 21.7084C28.4681 21.7084 28.468 21.7085 28.4678 21.7085C28.4676 21.7086 28.4675 21.7087 28.4673 21.7087C28.4672 21.7088 28.467 21.7089 28.4668 21.7089C28.4667 21.709 28.4665 21.709 28.4664 21.7091C28.4662 21.7092 28.4661 21.7092 28.4659 21.7093C28.4658 21.7093 28.4656 21.7094 28.4655 21.7095C28.4653 21.7095 28.4652 21.7096 28.465 21.7096C28.4649 21.7097 28.4647 21.7098 28.4646 21.7098C28.4644 21.7099 28.4643 21.7099 28.4641 21.71C28.464 21.71 28.4638 21.7101 28.4637 21.7102C28.4635 21.7102 28.4634 21.7103 28.4632 21.7103C28.4631 21.7104 28.4629 21.7104 28.4628 21.7105C28.4626 21.7106 28.4625 21.7106 28.4624 21.7107C28.4622 21.7107 28.4621 21.7108 28.4619 21.7108C28.4618 21.7109 28.4617 21.7109 28.4615 21.711C28.4614 21.7111 28.4612 21.7111 28.4611 21.7112C28.461 21.7112 28.4608 21.7113 28.4607 21.7113C28.4605 21.7114 28.4604 21.7114 28.4603 21.7115C28.4601 21.7115 28.46 21.7116 28.4599 21.7116C28.4597 21.7117 28.4596 21.7118 28.4595 21.7118C28.4593 21.7119 28.4592 21.7119 28.4591 21.712C28.4589 21.712 28.4588 21.7121 28.4587 21.7121C28.4586 21.7122 28.4584 21.7122 28.4583 21.7123C28.4582 21.7123 28.458 21.7124 28.4579 21.7124C28.4578 21.7125 28.4577 21.7125 28.4575 21.7126C28.4574 21.7126 28.4573 21.7127 28.4572 21.7127C28.457 21.7128 28.4569 21.7128 28.4568 21.7129C28.4567 21.7129 28.4565 21.713 28.4564 21.713C28.4563 21.713 28.4562 21.7131 28.456 21.7131C28.4559 21.7132 28.4558 21.7132 28.4557 21.7133C28.4556 21.7133 28.4554 21.7134 28.4553 21.7134C28.4552 21.7135 28.4551 21.7135 28.455 21.7136C28.4549 21.7136 28.4547 21.7137 28.4546 21.7137C28.4545 21.7137 28.4544 21.7138 28.4543 21.7138C28.4542 21.7139 28.4541 21.7139 28.4539 21.714C28.4538 21.714 28.4537 21.7141 28.4536 21.7141C28.4535 21.7141 28.4534 21.7142 28.4533 21.7142C28.4532 21.7143 28.4531 21.7143 28.453 21.7144C28.4528 21.7144 28.4527 21.7144 28.4526 21.7145C28.4525 21.7145 28.4524 21.7146 28.4523 21.7146C28.4522 21.7146 28.4521 21.7147 28.452 21.7147C28.4519 21.7148 28.4518 21.7148 28.4517 21.7148C28.4516 21.7149 28.4515 21.7149 28.4514 21.715C28.4513 21.715 28.4512 21.715 28.4511 21.7151C28.451 21.7151 28.4509 21.7152 28.4508 21.7152C28.4507 21.7152 28.4506 21.7153 28.4505 21.7153C28.4504 21.7154 28.4503 21.7154 28.4502 21.7154C28.4501 21.7155 28.45 21.7155 28.4499 21.7155C28.4498 21.7156 28.4497 21.7156 28.4496 21.7157C28.4495 21.7157 28.4494 21.7157 28.4494 21.7158C28.4493 21.7158 28.4492 21.7158 28.4491 21.7159C28.449 21.7159 28.4489 21.7159 28.4488 21.716C28.4487 21.716 28.4486 21.716 28.4485 21.7161C28.4485 21.7161 28.4484 21.7161 28.4483 21.7162C28.4482 21.7162 28.4481 21.7162 28.448 21.7163C28.4479 21.7163 28.4479 21.7163 28.4478 21.7164C28.4477 21.7164 28.4476 21.7164 28.4475 21.7165C28.4474 21.7165 28.4474 21.7165 28.4473 21.7166C28.4472 21.7166 28.4471 21.7166 28.447 21.7167C28.447 21.7167 28.4469 21.7167 28.4468 21.7168C28.4467 21.7168 28.4466 21.7168 28.4466 21.7169C28.4465 21.7169 28.4464 21.7169 28.4463 21.7169C28.4463 21.717 28.4462 21.717 28.4461 21.717C28.446 21.7171 28.446 21.7171 28.4459 21.7171C28.4458 21.7171 28.4458 21.7172 28.4457 21.7172C28.4456 21.7172 28.4455 21.7173 28.4455 21.7173C28.4454 21.7173 28.4453 21.7173 28.4453 21.7174C28.4452 21.7174 28.4451 21.7174 28.4451 21.7174C28.445 21.7175 28.4449 21.7175 28.4449 21.7175C28.4448 21.7175 28.4447 21.7176 28.4447 21.7176C28.4446 21.7176 28.4445 21.7176 28.4445 21.7177C28.4444 21.7177 28.4443 21.7177 28.4443 21.7177C28.4442 21.7178 28.4442 21.7178 28.4441 21.7178C28.444 21.7178 28.444 21.7179 28.4439 21.7179C28.4439 21.7179 28.4438 21.7179 28.4437 21.718C28.4437 21.718 28.4436 21.718 28.4436 21.718C28.4435 21.718 28.4435 21.7181 28.4434 21.7181C28.4434 21.7181 28.4433 21.7181 28.4433 21.7182C28.4432 21.7182 28.4431 21.7182 28.4431 21.7182C28.443 21.7182 28.443 21.7183 28.4429 21.7183C28.4429 21.7183 28.4428 21.7183 28.4428 21.7183C28.4427 21.7184 28.4427 21.7184 28.4426 21.7184C28.4426 21.7184 28.4425 21.7184 28.4425 21.7184C28.4425 21.7185 28.4424 21.7185 28.4424 21.7185C28.4423 21.7185 28.4423 21.7185 28.4422 21.7186C28.4422 21.7186 28.4421 21.7186 28.4421 21.7186C28.4421 21.7186 28.442 21.7186 28.442 21.7187C28.4419 21.7187 28.4419 21.7187 28.4419 21.7187C28.4418 21.7187 28.4418 21.7187 28.4417 21.7187C28.4417 21.7188 28.4417 21.7188 28.4416 21.7188C28.4416 21.7188 28.4415 21.7188 28.4415 21.7188C28.4415 21.7188 28.4414 21.7189 28.4414 21.7189C28.4414 21.7189 28.4413 21.7189 28.4413 21.7189C28.4413 21.7189 28.4412 21.7189 28.4412 21.719C28.4412 21.719 28.4411 21.719 28.4411 21.719C28.4411 21.719 28.4411 21.719 28.441 21.719C28.441 21.719 28.441 21.719 28.4409 21.7191C28.4409 21.7191 28.4409 21.7191 28.4409 21.7191C28.4408 21.7191 28.4408 21.7191 28.4408 21.7191C28.4408 21.7191 28.4407 21.7191 28.4407 21.7191C28.4407 21.7192 28.4407 21.7192 28.4406 21.7192C28.4406 21.7192 28.4406 21.7192 28.4406 21.7192C28.4406 21.7192 28.4405 21.7192 28.4405 21.7192C28.4405 21.7192 28.4405 21.7192 28.4405 21.7192C28.4405 21.7192 28.4404 21.7193 28.4404 21.7193C28.4404 21.7193 28.4404 21.7193 28.4404 21.7193C28.4404 21.7193 28.4403 21.7193 28.4403 21.7193C28.4403 21.7193 28.4403 21.7193 28.4403 21.7193C28.4403 21.7193 28.4403 21.7193 28.4403 21.7193C28.4402 21.7193 28.4402 21.7193 28.4402 21.7193C28.4402 21.7193 28.4402 21.7193 28.4402 21.7193C28.4402 21.7193 28.4402 21.7194 28.4402 21.7194C28.4402 21.7194 28.4402 21.7194 28.4402 21.7194C28.4401 21.7194 28.4401 21.7194 28.4401 21.7194C28.4401 21.7194 28.4401 21.7194 28.4401 21.7194C28.4401 21.7194 28.4401 21.7194 28.4401 21.7194C28.4401 21.7194 28.4401 21.7194 28.4766 21.8125ZM29.0737 21.6829C29.3011 21.5206 29.4641 21.344 29.552 21.1508L29.3699 21.068C29.3015 21.2185 29.1677 21.3701 28.9575 21.5202L29.0737 21.6829ZM29.5543 21.1453C29.6389 20.9253 29.6781 20.6219 29.6781 20.2422H29.4781C29.4781 20.6125 29.4392 20.8872 29.3676 21.0735L29.5543 21.1453ZM29.6781 20.2422V19.9609H29.4781V20.2422H29.6781ZM29.5549 20.0582L32.7892 20.8316L32.8358 20.6371L29.6014 19.8637L29.5549 20.0582ZM32.7125 20.7344C32.7125 22.0624 32.1802 23.1594 31.1087 24.0318L31.235 24.1869C32.3511 23.2781 32.9125 22.1251 32.9125 20.7344H32.7125ZM31.1089 24.0317C30.2966 24.6907 29.42 25.0172 28.4766 25.0172V25.2172C29.4706 25.2172 30.3909 24.8718 31.2349 24.187L31.1089 24.0317ZM28.5766 11.7812V8.47656H28.3766V11.7812H28.5766ZM28.4766 8.57656C29.5839 8.57656 30.5899 9.06059 31.4968 10.0443L31.6438 9.90878C30.707 8.89254 29.6505 8.37656 28.4766 8.37656V8.57656ZM31.4965 10.044C32.3109 10.9352 32.7125 11.8886 32.7125 12.9062H32.9125C32.9125 11.8302 32.486 10.8304 31.6441 9.90911L31.4965 10.044ZM32.7873 12.8095L29.5529 13.6532L29.6034 13.8468L32.8377 13.003L32.7873 12.8095ZM29.6781 13.75V13.3984H29.4781V13.75H29.6781ZM29.6781 13.3984C29.6781 13.0045 29.6392 12.6991 29.5532 12.4928L29.3686 12.5697C29.4389 12.7384 29.4781 13.0111 29.4781 13.3984H29.6781ZM29.5538 12.4941C29.4827 12.3163 29.3513 12.1617 29.1682 12.0285L29.0506 12.1902C29.2112 12.3071 29.3142 12.4337 29.3681 12.5684L29.5538 12.4941ZM29.1718 12.0313C29.011 11.9026 28.8611 11.8099 28.7226 11.7579L28.6524 11.9452C28.7639 11.987 28.8952 12.0661 29.0469 12.1875L29.1718 12.0313ZM28.7191 11.7567L28.5082 11.6864L28.4449 11.8761L28.6559 11.9464L28.7191 11.7567ZM34.1719 20.4297H34.0719L34.0719 20.4307L34.1719 20.4297ZM35.2266 10.1875L35.1497 10.1235L35.1492 10.1242L35.2266 10.1875ZM38.7891 8.47656H38.8891V8.37547L38.788 8.37657L38.7891 8.47656ZM38.7891 11.7812L38.7915 11.8812L38.8891 11.8788V11.7812H38.7891ZM37.5234 12.8594L37.4274 12.8316L37.4273 12.8319L37.5234 12.8594ZM38.5312 21.7422L38.4996 21.8371L38.5038 21.8383L38.5312 21.7422ZM38.7656 21.7891H38.8656V21.6891H38.7656V21.7891ZM38.7656 25.1172V25.2172H38.8656V25.1172H38.7656ZM36.0938 24.1562L36.0342 24.2366L36.0354 24.2374L36.0938 24.1562ZM40.0547 25.1172H39.9547V25.2172H40.0547V25.1172ZM40.0547 21.7891V21.6891H39.9547V21.7891H40.0547ZM40.8984 21.3906L40.9632 21.4668L40.9651 21.4651L40.8984 21.3906ZM41.3672 20.4297L41.4672 20.4339V20.4297H41.3672ZM40.9688 12.2031L41.045 12.1383L41.0416 12.1346L40.9688 12.2031ZM40.0547 11.7812H39.9547V11.877L40.0503 11.8812L40.0547 11.7812ZM40.0547 8.47656V8.37656H39.9547V8.47656H40.0547ZM43.8516 10.5156L43.9335 10.4583L43.9334 10.4582L43.8516 10.5156ZM42.3516 24.4141L42.4015 24.5007L42.4028 24.5L42.3516 24.4141ZM34.2719 20.4297V12.7188H34.0719V20.4297H34.2719ZM34.2719 12.7188C34.2719 11.9205 34.6105 11.0984 35.304 10.2508L35.1492 10.1242C34.4364 10.9953 34.0719 11.8607 34.0719 12.7188H34.2719ZM35.3034 10.2515C36.2225 9.14854 37.3826 8.59186 38.7901 8.57656L38.788 8.37657C37.3206 8.39252 36.1056 8.97646 35.1497 10.1235L35.3034 10.2515ZM38.6891 8.47656V11.7812H38.8891V8.47656H38.6891ZM38.7866 11.6813C38.4472 11.6896 38.1584 11.7895 37.9273 11.9864C37.6974 12.1823 37.5327 12.4672 37.4274 12.8316L37.6195 12.8871C37.7173 12.5485 37.8651 12.3021 38.057 12.1386C38.2479 11.9761 38.4903 11.8886 38.7915 11.8812L38.7866 11.6813ZM37.4273 12.8319C37.3961 12.9411 37.3766 13.0314 37.3766 13.0938H37.5766C37.5766 13.0624 37.5883 12.9964 37.6196 12.8868L37.4273 12.8319ZM37.3766 13.0938V20.4297H37.5766V13.0938H37.3766ZM37.3766 20.4297C37.3766 20.7694 37.4702 21.0619 37.6623 21.3009C37.8534 21.5387 38.1356 21.7157 38.4996 21.8371L38.5629 21.6473C38.2238 21.5343 37.9786 21.3753 37.8182 21.1756C37.6587 20.9771 37.5766 20.7306 37.5766 20.4297H37.3766ZM38.5038 21.8383C38.613 21.8695 38.7033 21.8891 38.7656 21.8891V21.6891C38.7342 21.6891 38.6683 21.6773 38.5587 21.646L38.5038 21.8383ZM38.6656 21.7891V25.1172H38.8656V21.7891H38.6656ZM38.7656 25.0172C37.9004 25.0172 37.0298 24.7063 36.1521 24.0751L36.0354 24.2374C36.939 24.8874 37.8496 25.2172 38.7656 25.2172V25.0172ZM36.1533 24.0759C34.9123 23.1566 34.2872 21.9436 34.2719 20.4287L34.0719 20.4307C34.0878 22.0096 34.744 23.2809 36.0342 24.2366L36.1533 24.0759ZM40.1547 25.1172V21.7891H39.9547V25.1172H40.1547ZM40.0547 21.8891C40.3395 21.8891 40.6434 21.7387 40.9632 21.4668L40.8337 21.3144C40.5285 21.5738 40.2699 21.6891 40.0547 21.6891V21.8891ZM40.9651 21.4651C41.2807 21.1828 41.4503 20.8376 41.4671 20.4339L41.2673 20.4255C41.2528 20.7718 41.1099 21.0672 40.8318 21.3161L40.9651 21.4651ZM41.4672 20.4297V13.0938H41.2672V20.4297H41.4672ZM41.4672 13.0938C41.4672 12.78 41.3191 12.4609 41.0449 12.1384L40.8926 12.2679C41.1497 12.5704 41.2672 12.845 41.2672 13.0938H41.4672ZM41.0416 12.1346C40.774 11.8503 40.4449 11.6981 40.059 11.6813L40.0503 11.8812C40.3833 11.8956 40.6635 12.0247 40.8959 12.2717L41.0416 12.1346ZM40.1547 11.7812V8.47656H39.9547V11.7812H40.1547ZM40.0547 8.57656C41.5983 8.57656 42.8341 9.23871 43.7697 10.573L43.9334 10.4582C42.9628 9.07379 41.6674 8.37656 40.0547 8.37656V8.57656ZM43.7696 10.573C44.3092 11.3437 44.5719 12.0583 44.5719 12.7188H44.7719C44.7719 12.0042 44.4877 11.25 43.9335 10.4583L43.7696 10.573ZM44.5719 12.7188V20.4297H44.7719V12.7188H44.5719ZM44.5719 20.4297C44.5719 22.1272 43.8184 23.4235 42.3004 24.3282L42.4028 24.5C43.9785 23.5609 44.7719 22.2009 44.7719 20.4297H44.5719ZM42.3016 24.3274C41.4998 24.79 40.7513 25.0172 40.0547 25.0172V25.2172C40.7955 25.2172 41.5784 24.9756 42.4015 24.5007L42.3016 24.3274ZM46.5469 25H46.4469V25.1H46.5469V25ZM46.5469 8.59375V8.49375H46.4469V8.59375H46.5469ZM49.8516 8.59375H49.9516V8.49375H49.8516V8.59375ZM49.8516 25V25.1H49.9516V25H49.8516ZM51.1172 25H51.0172V25.1H51.1172V25ZM51.1172 21.6953V21.5953H51.0172V21.6953H51.1172ZM52.0781 21.2734L52.1472 21.3464L52.1534 21.3393L52.0781 21.2734ZM52.4297 20.3828L52.5297 20.3874V20.3828H52.4297ZM52.0312 12.2969L52.1059 12.2301L52.102 12.2262L52.0312 12.2969ZM51.1172 11.8984H51.0172V11.9942L51.1128 11.9983L51.1172 11.8984ZM51.1172 8.59375V8.49375H51.0172V8.59375H51.1172ZM55.0547 10.9141L55.1416 10.8646L55.1413 10.8642L55.0547 10.9141ZM53.3672 24.3672L53.4147 24.4552L53.4157 24.4546L53.3672 24.3672ZM46.6469 25V8.59375H46.4469V25H46.6469ZM46.5469 8.69375H49.8516V8.49375H46.5469V8.69375ZM49.7516 8.59375V25H49.9516V8.59375H49.7516ZM49.8516 24.9H46.5469V25.1H49.8516V24.9ZM51.2172 25V21.6953H51.0172V25H51.2172ZM51.1172 21.7953C51.4913 21.7953 51.8352 21.6413 52.1469 21.346L52.0094 21.2008C51.7273 21.468 51.4306 21.5953 51.1172 21.5953V21.7953ZM52.1534 21.3393C52.3876 21.0716 52.513 20.7529 52.5296 20.3874L52.3298 20.3783C52.3152 20.7003 52.2061 20.9753 52.0029 21.2076L52.1534 21.3393ZM52.5297 20.3828V13.2109H52.3297V20.3828H52.5297ZM52.5297 13.2109C52.5297 12.8677 52.3832 12.5402 52.1058 12.2302L51.9567 12.3636C52.2106 12.6473 52.3297 12.9292 52.3297 13.2109H52.5297ZM52.102 12.2262C51.8339 11.9581 51.5054 11.8152 51.1215 11.7985L51.1128 11.9983C51.4477 12.0129 51.7286 12.1356 51.9605 12.3676L52.102 12.2262ZM51.2172 11.8984V8.59375H51.0172V11.8984H51.2172ZM51.1172 8.69375C52.8145 8.69375 54.0946 9.44697 54.968 10.964L55.1413 10.8642C54.2335 9.28741 52.8886 8.49375 51.1172 8.49375V8.69375ZM54.9678 10.9635C55.4144 11.749 55.6344 12.4977 55.6344 13.2109H55.8344C55.8344 12.4554 55.6012 11.6729 55.1416 10.8646L54.9678 10.9635ZM55.6344 13.2109V20.3828H55.8344V13.2109H55.6344ZM55.6344 20.3828C55.6344 21.2583 55.4406 22.0174 55.0566 22.6638C54.6725 23.3102 54.0949 23.8494 53.3187 24.2797L53.4157 24.4546C54.2176 24.01 54.8235 23.4476 55.2285 22.7659C55.6336 22.0842 55.8344 21.2886 55.8344 20.3828H55.6344ZM53.3197 24.2792C52.5496 24.695 51.8159 24.9 51.1172 24.9V25.1C51.856 25.1 52.6222 24.8831 53.4147 24.4552L53.3197 24.2792ZM57.6094 25H57.5094V25.1H57.6094V25ZM57.6094 8.59375V8.49375H57.5094V8.59375H57.6094ZM66.1406 8.59375H66.2406V8.49375H66.1406V8.59375ZM66.1406 11.875V11.975H66.2406V11.875H66.1406ZM60.9141 11.875V11.775H60.8141V11.875H60.9141ZM60.9141 15.2031H60.8141V15.3031H60.9141V15.2031ZM63.9375 15.2031H64.0375V15.1031H63.9375V15.2031ZM63.9375 18.5078V18.6078H64.0375V18.5078H63.9375ZM60.9141 18.5078V18.4078H60.8141V18.5078H60.9141ZM60.9141 21.6953H60.8141V21.7953H60.9141V21.6953ZM66.1406 21.6953H66.2406V21.5953H66.1406V21.6953ZM66.1406 25V25.1H66.2406V25H66.1406ZM57.7094 25V8.59375H57.5094V25H57.7094ZM57.6094 8.69375H66.1406V8.49375H57.6094V8.69375ZM66.0406 8.59375V11.875H66.2406V8.59375H66.0406ZM66.1406 11.775H60.9141V11.975H66.1406V11.775ZM60.8141 11.875V15.2031H61.0141V11.875H60.8141ZM60.9141 15.3031H63.9375V15.1031H60.9141V15.3031ZM63.8375 15.2031V18.5078H64.0375V15.2031H63.8375ZM63.9375 18.4078H60.9141V18.6078H63.9375V18.4078ZM60.8141 18.5078V21.6953H61.0141V18.5078H60.8141ZM60.9141 21.7953H66.1406V21.5953H60.9141V21.7953ZM66.0406 21.6953V25H66.2406V21.6953H66.0406ZM66.1406 24.9H57.6094V25.1H66.1406V24.9ZM67.7344 23.1484H67.6344V23.3111L67.7795 23.2377L67.7344 23.1484ZM67.7344 20.1719L67.6905 20.082L67.6344 20.1094V20.1719H67.7344ZM71.8594 18.1562L71.9033 18.2461L72.0962 18.1518L71.8999 18.0648L71.8594 18.1562ZM67.7344 16.3281H67.6344V16.3932L67.6939 16.4195L67.7344 16.3281ZM67.7344 13.2812L67.7793 13.1919L67.6344 13.119V13.2812H67.7344ZM76.0312 17.4531H76.1313V17.3915L76.0762 17.3638L76.0312 17.4531ZM76.0312 18.9531L76.0764 19.0424L76.1313 19.0146V18.9531H76.0312ZM67.8344 23.1484V20.1719H67.6344V23.1484H67.8344ZM67.7783 20.2617L71.9033 18.2461L71.8155 18.0664L67.6905 20.082L67.7783 20.2617ZM71.8999 18.0648L67.7749 16.2367L67.6939 16.4195L71.8189 18.2477L71.8999 18.0648ZM67.8344 16.3281V13.2812H67.6344V16.3281H67.8344ZM67.6895 13.3706L75.9863 17.5425L76.0762 17.3638L67.7793 13.1919L67.6895 13.3706ZM75.9312 17.4531V18.9531H76.1313V17.4531H75.9312ZM75.9861 18.8639L67.6893 23.0592L67.7795 23.2377L76.0764 19.0424L75.9861 18.8639Z" fill="#121212" mask="url(#path-3-outside-2_626_4)"/>
</svg>
